<svg width="224" height="22" viewBox="0 0 224 22" fill="none" xmlns="http://www.w3.org/2000/svg">
<path d="M0.74 22L0.74 4C0.74 3.34 0.9 2.74 1.22 2.2C1.54 1.64 1.97 1.2 2.51 0.879998C3.07 0.559999 3.68 0.399999 4.34 0.399999L18.74 0.399999C19.4 0.399999 20 0.559999 20.54 0.879998C21.1 1.2 21.54 1.64 21.86 2.2C22.18 2.74 22.34 3.34 22.34 4V22H19.91V14.11L3.17 14.11L3.17 22H0.74ZM3.17 11.68L19.91 11.68V4C19.91 3.68 19.79 3.41 19.55 3.19C19.33 2.95 19.06 2.83 18.74 2.83L4.34 2.83C4.02 2.83 3.74 2.95 3.5 3.19C3.28 3.41 3.17 3.68 3.17 4L3.17 11.68ZM25.7581 22L25.7581 0.399999H29.0881L44.9281 19.24L44.9281 0.399999L47.3581 0.399999L47.3581 22H44.0281L28.1881 3.16V22H25.7581ZM54.2591 22C53.5991 22 52.9891 21.84 52.4291 21.52C51.8891 21.2 51.4591 20.77 51.1391 20.23C50.8191 19.67 50.6591 19.06 50.6591 18.4L50.6591 4C50.6591 3.34 50.8191 2.74 51.1391 2.2C51.4591 1.64 51.8891 1.2 52.4291 0.879998C52.9891 0.559999 53.5991 0.399999 54.2591 0.399999L68.6591 0.399999C69.3191 0.399999 69.9191 0.559999 70.4591 0.879998C71.0191 1.2 71.4591 1.64 71.7791 2.2C72.0991 2.74 72.2591 3.34 72.2591 4V18.4C72.2591 19.06 72.0991 19.67 71.7791 20.23C71.4591 20.77 71.0191 21.2 70.4591 21.52C69.9191 21.84 69.3191 22 68.6591 22H54.2591ZM54.2591 19.57H68.6591C68.9791 19.57 69.2491 19.46 69.4691 19.24C69.7091 19 69.8291 18.72 69.8291 18.4V4C69.8291 3.68 69.7091 3.41 69.4691 3.19C69.2491 2.95 68.9791 2.83 68.6591 2.83L54.2591 2.83C53.9391 2.83 53.6591 2.95 53.4191 3.19C53.1991 3.41 53.0891 3.68 53.0891 4L53.0891 18.4C53.0891 18.72 53.1991 19 53.4191 19.24C53.6591 19.46 53.9391 19.57 54.2591 19.57ZM75.5628 22V0.399999L78.8928 0.399999L94.7328 19.24V0.399999L97.1628 0.399999V22H93.8328L77.9928 3.16V22H75.5628ZM109.734 22V13.87L99.8038 0.399999H102.594L110.964 10.96L119.244 0.399999H122.094L112.164 13.87V22L109.734 22ZM124.694 22V0.399999L128.024 0.399999L136.994 11.08L145.964 0.399999L149.294 0.399999V22H146.864V3.16L136.994 14.89L127.124 3.16V22H124.694ZM156.066 22C155.406 22 154.796 21.84 154.236 21.52C153.696 21.2 153.266 20.77 152.946 20.23C152.626 19.67 152.466 19.06 152.466 18.4V4C152.466 3.34 152.626 2.74 152.946 2.2C153.266 1.64 153.696 1.2 154.236 0.879998C154.796 0.559999 155.406 0.399999 156.066 0.399999L170.466 0.399999C171.126 0.399999 171.726 0.559999 172.266 0.879998C172.826 1.2 173.266 1.64 173.586 2.2C173.906 2.74 174.066 3.34 174.066 4V18.4C174.066 19.06 173.906 19.67 173.586 20.23C173.266 20.77 172.826 21.2 172.266 21.52C171.726 21.84 171.126 22 170.466 22H156.066ZM156.066 19.57H170.466C170.786 19.57 171.056 19.46 171.276 19.24C171.516 19 171.636 18.72 171.636 18.4V4C171.636 3.68 171.516 3.41 171.276 3.19C171.056 2.95 170.786 2.83 170.466 2.83L156.066 2.83C155.746 2.83 155.466 2.95 155.226 3.19C155.006 3.41 154.896 3.68 154.896 4V18.4C154.896 18.72 155.006 19 155.226 19.24C155.466 19.46 155.746 19.57 156.066 19.57ZM180.909 22C180.249 22 179.639 21.84 179.079 21.52C178.539 21.2 178.109 20.77 177.789 20.23C177.469 19.67 177.309 19.06 177.309 18.4V0.399999L179.739 0.399999V18.4C179.739 18.72 179.849 19 180.069 19.24C180.309 19.46 180.589 19.57 180.909 19.57L195.309 19.57C195.629 19.57 195.899 19.46 196.119 19.24C196.359 19 196.479 18.72 196.479 18.4V0.399999L198.909 0.399999V18.4C198.909 19.06 198.749 19.67 198.429 20.23C198.109 20.77 197.669 21.2 197.109 21.52C196.569 21.84 195.969 22 195.309 22L180.909 22ZM205.663 22C205.003 22 204.393 21.84 203.833 21.52C203.293 21.2 202.863 20.77 202.543 20.23C202.223 19.67 202.063 19.06 202.063 18.4V17.56H204.493V18.4C204.493 18.72 204.603 19 204.823 19.24C205.063 19.46 205.343 19.57 205.663 19.57L220.063 19.57C220.383 19.57 220.653 19.46 220.873 19.24C221.113 19 221.233 18.72 221.233 18.4V13.57C221.233 13.25 221.113 12.98 220.873 12.76C220.653 12.54 220.383 12.43 220.063 12.43L205.663 12.43C205.003 12.43 204.393 12.27 203.833 11.95C203.293 11.61 202.863 11.17 202.543 10.63C202.223 10.09 202.063 9.49 202.063 8.83V4C202.063 3.34 202.223 2.74 202.543 2.2C202.863 1.64 203.293 1.2 203.833 0.879998C204.393 0.559999 205.003 0.399999 205.663 0.399999L220.063 0.399999C220.723 0.399999 221.323 0.559999 221.863 0.879998C222.423 1.2 222.863 1.64 223.183 2.2C223.503 2.74 223.663 3.34 223.663 4V4.84H221.233V4C221.233 3.68 221.113 3.41 220.873 3.19C220.653 2.95 220.383 2.83 220.063 2.83L205.663 2.83C205.343 2.83 205.063 2.95 204.823 3.19C204.603 3.41 204.493 3.68 204.493 4V8.83C204.493 9.15 204.603 9.42 204.823 9.64C205.063 9.86 205.343 9.97 205.663 9.97L220.063 9.97C220.723 9.97 221.323 10.14 221.863 10.48C222.423 10.8 222.863 11.23 223.183 11.77C223.503 12.31 223.663 12.91 223.663 13.57V18.4C223.663 19.06 223.503 19.67 223.183 20.23C222.863 20.77 222.423 21.2 221.863 21.52C221.323 21.84 220.723 22 220.063 22L205.663 22Z" fill="#5A4B6D"/>
</svg>
