<svg width="131" height="29" viewBox="0 0 131 29" fill="none" xmlns="http://www.w3.org/2000/svg">
<path d="M0.28 29L0.28 0.199999H3.52L3.52 12.96L26.52 12.96V0.199999H29.8L29.8 29H26.52L26.52 16.24L3.52 16.24L3.52 29H0.28ZM38.9834 29C38.1034 29 37.2901 28.7867 36.5434 28.36C35.8234 27.9333 35.2501 27.36 34.8234 26.64C34.3968 25.8933 34.1834 25.08 34.1834 24.2L34.1834 5C34.1834 4.12 34.3968 3.32 34.8234 2.6C35.2501 1.85333 35.8234 1.26667 36.5434 0.839998C37.2901 0.413332 38.1034 0.199999 38.9834 0.199999L58.1834 0.199999C59.0634 0.199999 59.8634 0.413332 60.5834 0.839998C61.3301 1.26667 61.9168 1.85333 62.3434 2.6C62.7701 3.32 62.9834 4.12 62.9834 5V24.2C62.9834 25.08 62.7701 25.8933 62.3434 26.64C61.9168 27.36 61.3301 27.9333 60.5834 28.36C59.8634 28.7867 59.0634 29 58.1834 29H38.9834ZM38.9834 25.76H58.1834C58.6101 25.76 58.9701 25.6133 59.2634 25.32C59.5834 25 59.7434 24.6267 59.7434 24.2L59.7434 5C59.7434 4.57333 59.5834 4.21333 59.2634 3.92C58.9701 3.6 58.6101 3.44 58.1834 3.44L38.9834 3.44C38.5568 3.44 38.1834 3.6 37.8634 3.92C37.5701 4.21333 37.4234 4.57333 37.4234 5L37.4234 24.2C37.4234 24.6267 37.5701 25 37.8634 25.32C38.1834 25.6133 38.5568 25.76 38.9834 25.76ZM67.3884 29V0.199999L71.8284 0.199999L83.7884 14.44L95.7484 0.199999H100.188V29H96.9484V3.88L83.7884 19.52L70.6284 3.88V29H67.3884ZM104.578 29V0.199999L130.858 0.199999V3.44L107.818 3.44V12.96L126.338 12.96V16.24L107.818 16.24V25.76L130.858 25.76V29L104.578 29Z" fill="#5A4B6D"/>
</svg>
