<svg width="182" height="22" viewBox="0 0 182 22" fill="none" xmlns="http://www.w3.org/2000/svg">
<path d="M0.98 22L0.98 0.399999H3.44L3.44 22H0.98ZM7.15602 22L7.15602 0.399999L25.156 0.399999C25.816 0.399999 26.416 0.559999 26.956 0.879998C27.516 1.2 27.956 1.64 28.276 2.2C28.596 2.74 28.756 3.34 28.756 4V18.4C28.756 19.06 28.596 19.67 28.276 20.23C27.956 20.77 27.516 21.2 26.956 21.52C26.416 21.84 25.816 22 25.156 22L7.15602 22ZM10.756 19.57H25.156C25.476 19.57 25.746 19.46 25.966 19.24C26.206 19 26.326 18.72 26.326 18.4V4C26.326 3.68 26.206 3.41 25.966 3.19C25.746 2.95 25.476 2.83 25.156 2.83L10.756 2.83C10.436 2.83 10.156 2.95 9.91602 3.19C9.69602 3.41 9.58602 3.68 9.58602 4L9.58602 18.4C9.58602 18.72 9.69602 19 9.91602 19.24C10.156 19.46 10.436 19.57 10.756 19.57ZM32.1755 22L32.1755 0.399999L51.8855 0.399999V2.83L34.6055 2.83V9.97H48.4955V12.43H34.6055L34.6055 19.57L51.8855 19.57V22L32.1755 22ZM55.0843 22L55.0843 0.399999L58.4143 0.399999L74.2543 19.24V0.399999L76.6843 0.399999V22H73.3543L57.5143 3.16L57.5143 22H55.0843ZM88.5652 22V2.83L78.9652 2.83V0.399999L100.565 0.399999V2.83L90.9952 2.83V22L88.5652 22ZM103.109 22V0.399999H105.569V22H103.109ZM109.285 22V0.399999L128.995 0.399999V2.83L111.715 2.83V9.97H125.605V12.43H111.715V22L109.285 22ZM131.205 22V0.399999H133.665V22L131.205 22ZM137.381 22V0.399999L157.091 0.399999V2.83L139.811 2.83V9.97L153.701 9.97V12.43L139.811 12.43V19.57L157.091 19.57V22L137.381 22ZM160.349 22V0.399999L178.349 0.399999C179.009 0.399999 179.609 0.559999 180.149 0.879998C180.709 1.2 181.149 1.64 181.469 2.2C181.789 2.74 181.949 3.34 181.949 4V18.4C181.949 19.06 181.789 19.67 181.469 20.23C181.149 20.77 180.709 21.2 180.149 21.52C179.609 21.84 179.009 22 178.349 22L160.349 22ZM163.949 19.57L178.349 19.57C178.669 19.57 178.939 19.46 179.159 19.24C179.399 19 179.519 18.72 179.519 18.4V4C179.519 3.68 179.399 3.41 179.159 3.19C178.939 2.95 178.669 2.83 178.349 2.83L163.949 2.83C163.629 2.83 163.349 2.95 163.109 3.19C162.889 3.41 162.779 3.68 162.779 4V18.4C162.779 18.72 162.889 19 163.109 19.24C163.349 19.46 163.629 19.57 163.949 19.57Z" fill="#5A4B6D"/>
</svg>
