<svg width="48" height="11" viewBox="0 0 48 11" fill="none" xmlns="http://www.w3.org/2000/svg">
<path d="M2.565 11C2.235 11 1.93 10.92 1.65 10.76C1.38 10.6 1.165 10.385 1.005 10.115C0.845 9.835 0.765 9.53 0.765 9.2V8.78H1.98V9.2C1.98 9.36 2.035 9.5 2.145 9.62C2.265 9.73 2.405 9.785 2.565 9.785H9.765C9.925 9.785 10.06 9.73 10.17 9.62C10.29 9.5 10.35 9.36 10.35 9.2V6.785C10.35 6.625 10.29 6.49 10.17 6.38C10.06 6.27 9.925 6.215 9.765 6.215H2.565C2.235 6.215 1.93 6.135 1.65 5.975C1.38 5.805 1.165 5.585 1.005 5.315C0.845 5.045 0.765 4.745 0.765 4.415V2C0.765 1.67 0.845 1.37 1.005 1.1C1.165 0.82 1.38 0.599999 1.65 0.439999C1.93 0.279999 2.235 0.2 2.565 0.2H9.765C10.095 0.2 10.395 0.279999 10.665 0.439999C10.945 0.599999 11.165 0.82 11.325 1.1C11.485 1.37 11.565 1.67 11.565 2V2.42H10.35V2C10.35 1.84 10.29 1.705 10.17 1.595C10.06 1.475 9.925 1.415 9.765 1.415H2.565C2.405 1.415 2.265 1.475 2.145 1.595C2.035 1.705 1.98 1.84 1.98 2V4.415C1.98 4.575 2.035 4.71 2.145 4.82C2.265 4.93 2.405 4.985 2.565 4.985H9.765C10.095 4.985 10.395 5.07 10.665 5.24C10.945 5.4 11.165 5.615 11.325 5.885C11.485 6.155 11.565 6.455 11.565 6.785V9.2C11.565 9.53 11.485 9.835 11.325 10.115C11.165 10.385 10.945 10.6 10.665 10.76C10.395 10.92 10.095 11 9.765 11H2.565ZM13.204 11V0.2H23.059V1.415H14.419V4.985H21.364V6.215H14.419V9.785H23.059V11H13.204ZM24.6584 11V0.2H26.3234L34.2434 9.62V0.2H35.4584V11H33.7934L25.8734 1.58V11H24.6584ZM37.1688 11V0.2H46.1688C46.4988 0.2 46.7988 0.279999 47.0688 0.439999C47.3488 0.599999 47.5688 0.82 47.7288 1.1C47.8888 1.37 47.9688 1.67 47.9688 2V9.2C47.9688 9.53 47.8888 9.835 47.7288 10.115C47.5688 10.385 47.3488 10.6 47.0688 10.76C46.7988 10.92 46.4988 11 46.1688 11H37.1688ZM38.9688 9.785H46.1688C46.3288 9.785 46.4638 9.73 46.5738 9.62C46.6938 9.5 46.7538 9.36 46.7538 9.2V2C46.7538 1.84 46.6938 1.705 46.5738 1.595C46.4638 1.475 46.3288 1.415 46.1688 1.415H38.9688C38.8088 1.415 38.6688 1.475 38.5488 1.595C38.4388 1.705 38.3838 1.84 38.3838 2V9.2C38.3838 9.36 38.4388 9.5 38.5488 9.62C38.6688 9.73 38.8088 9.785 38.9688 9.785Z" fill="white"/>
</svg>
