<svg width="295" height="18" viewBox="0 0 295 18" fill="none" xmlns="http://www.w3.org/2000/svg">
<path d="M15.6 18L9.725 11H12.375L18.275 17.975V18H15.6ZM0.4 18V0.024999H15.4C15.95 0.024999 16.45 0.166666 16.9 0.449999C17.3667 0.716666 17.7333 1.075 18 1.525C18.2667 1.975 18.4 2.475 18.4 3.025V8.3C18.4 8.85 18.2667 9.35 18 9.8C17.7333 10.25 17.3667 10.6167 16.9 10.9C16.45 11.1667 15.95 11.3 15.4 11.3H2.425V18H0.4ZM3.4 9.25H15.4C15.6667 9.25 15.8917 9.15833 16.075 8.975C16.275 8.79167 16.375 8.56667 16.375 8.3V3.025C16.375 2.75833 16.275 2.53333 16.075 2.35C15.8917 2.15 15.6667 2.05 15.4 2.05H3.4C3.13333 2.05 2.9 2.15 2.7 2.35C2.51667 2.53333 2.425 2.75833 2.425 3.025V8.3C2.425 8.56667 2.51667 8.79167 2.7 8.975C2.9 9.15833 3.13333 9.25 3.4 9.25ZM21.0799 18V-7.15256e-07H37.5049V2.025H23.1049V7.975H34.6799V10.025H23.1049V15.975H37.5049V18H21.0799ZM47.2705 18V2.025H39.2705V-7.15256e-07H57.2705V2.025H49.2955V18H47.2705ZM66.8152 18V11.225L58.5402 -7.15256e-07H60.8652L67.8402 8.8L74.7402 -7.15256e-07H77.1152L68.8402 11.225V18H66.8152ZM79.2818 18V0.024999H94.2818C94.8318 0.024999 95.3318 0.166666 95.7818 0.449999C96.2485 0.716666 96.6152 1.075 96.8818 1.525C97.1485 1.975 97.2818 2.475 97.2818 3.025V8.3C97.2818 8.85 97.1485 9.35 96.8818 9.8C96.6152 10.25 96.2485 10.6167 95.7818 10.9C95.3318 11.1667 94.8318 11.3 94.2818 11.3H81.3068V18H79.2818ZM82.2818 9.25H94.2818C94.5485 9.25 94.7735 9.15833 94.9568 8.975C95.1568 8.79167 95.2568 8.56667 95.2568 8.3V3.025C95.2568 2.75833 95.1568 2.53333 94.9568 2.35C94.7735 2.15 94.5485 2.05 94.2818 2.05H82.2818C82.0152 2.05 81.7818 2.15 81.5818 2.35C81.3985 2.53333 81.3068 2.75833 81.3068 3.025V8.3C81.3068 8.56667 81.3985 8.79167 81.5818 8.975C81.7818 9.15833 82.0152 9.25 82.2818 9.25ZM99.1072 18V-7.15256e-07H115.532V2.025H101.132V7.975H112.707V10.025H101.132V15.975H115.532V18H99.1072ZM125.009 18V0.024999H140.009C140.559 0.024999 141.059 0.166666 141.509 0.449999C141.976 0.716666 142.343 1.075 142.609 1.525C142.876 1.975 143.009 2.475 143.009 3.025V8.3C143.009 8.85 142.876 9.35 142.609 9.8C142.343 10.25 141.976 10.6167 141.509 10.9C141.059 11.1667 140.559 11.3 140.009 11.3H127.034V18H125.009ZM128.009 9.25H140.009C140.276 9.25 140.501 9.15833 140.684 8.975C140.884 8.79167 140.984 8.56667 140.984 8.3V3.025C140.984 2.75833 140.884 2.53333 140.684 2.35C140.501 2.15 140.276 2.05 140.009 2.05H128.009C127.743 2.05 127.509 2.15 127.309 2.35C127.126 2.53333 127.034 2.75833 127.034 3.025V8.3C127.034 8.56667 127.126 8.79167 127.309 8.975C127.509 9.15833 127.743 9.25 128.009 9.25ZM145.079 18V3C145.079 2.45 145.212 1.95 145.479 1.5C145.746 1.03333 146.104 0.666666 146.554 0.399999C147.021 0.133332 147.529 -7.15256e-07 148.079 -7.15256e-07H160.079C160.629 -7.15256e-07 161.129 0.133332 161.579 0.399999C162.046 0.666666 162.412 1.03333 162.679 1.5C162.946 1.95 163.079 2.45 163.079 3V18H161.054V11.425H147.104V18H145.079ZM147.104 9.4H161.054V3C161.054 2.73333 160.954 2.50833 160.754 2.325C160.571 2.125 160.346 2.025 160.079 2.025H148.079C147.812 2.025 147.579 2.125 147.379 2.325C147.196 2.50833 147.104 2.73333 147.104 3V9.4ZM168.802 18C168.252 18 167.744 17.8667 167.277 17.6C166.827 17.3333 166.469 16.975 166.202 16.525C165.936 16.0583 165.802 15.55 165.802 15V14.3H167.827V15C167.827 15.2667 167.919 15.5 168.102 15.7C168.302 15.8833 168.536 15.975 168.802 15.975H180.802C181.069 15.975 181.294 15.8833 181.477 15.7C181.677 15.5 181.777 15.2667 181.777 15V10.975C181.777 10.7083 181.677 10.4833 181.477 10.3C181.294 10.1167 181.069 10.025 180.802 10.025H168.802C168.252 10.025 167.744 9.89167 167.277 9.625C166.827 9.34167 166.469 8.975 166.202 8.525C165.936 8.075 165.802 7.575 165.802 7.025V3C165.802 2.45 165.936 1.95 166.202 1.5C166.469 1.03333 166.827 0.666666 167.277 0.399999C167.744 0.133332 168.252 -7.15256e-07 168.802 -7.15256e-07H180.802C181.352 -7.15256e-07 181.852 0.133332 182.302 0.399999C182.769 0.666666 183.136 1.03333 183.402 1.5C183.669 1.95 183.802 2.45 183.802 3V3.7H181.777V3C181.777 2.73333 181.677 2.50833 181.477 2.325C181.294 2.125 181.069 2.025 180.802 2.025H168.802C168.536 2.025 168.302 2.125 168.102 2.325C167.919 2.50833 167.827 2.73333 167.827 3V7.025C167.827 7.29167 167.919 7.51667 168.102 7.7C168.302 7.88333 168.536 7.975 168.802 7.975H180.802C181.352 7.975 181.852 8.11667 182.302 8.4C182.769 8.66667 183.136 9.025 183.402 9.475C183.669 9.925 183.802 10.425 183.802 10.975V15C183.802 15.55 183.669 16.0583 183.402 16.525C183.136 16.975 182.769 17.3333 182.302 17.6C181.852 17.8667 181.352 18 180.802 18H168.802ZM189.359 18C188.809 18 188.301 17.8667 187.834 17.6C187.384 17.3333 187.026 16.975 186.759 16.525C186.492 16.0583 186.359 15.55 186.359 15V14.3H188.384V15C188.384 15.2667 188.476 15.5 188.659 15.7C188.859 15.8833 189.092 15.975 189.359 15.975H201.359C201.626 15.975 201.851 15.8833 202.034 15.7C202.234 15.5 202.334 15.2667 202.334 15V10.975C202.334 10.7083 202.234 10.4833 202.034 10.3C201.851 10.1167 201.626 10.025 201.359 10.025H189.359C188.809 10.025 188.301 9.89167 187.834 9.625C187.384 9.34167 187.026 8.975 186.759 8.525C186.492 8.075 186.359 7.575 186.359 7.025V3C186.359 2.45 186.492 1.95 186.759 1.5C187.026 1.03333 187.384 0.666666 187.834 0.399999C188.301 0.133332 188.809 -7.15256e-07 189.359 -7.15256e-07H201.359C201.909 -7.15256e-07 202.409 0.133332 202.859 0.399999C203.326 0.666666 203.692 1.03333 203.959 1.5C204.226 1.95 204.359 2.45 204.359 3V3.7H202.334V3C202.334 2.73333 202.234 2.50833 202.034 2.325C201.851 2.125 201.626 2.025 201.359 2.025H189.359C189.092 2.025 188.859 2.125 188.659 2.325C188.476 2.50833 188.384 2.73333 188.384 3V7.025C188.384 7.29167 188.476 7.51667 188.659 7.7C188.859 7.88333 189.092 7.975 189.359 7.975H201.359C201.909 7.975 202.409 8.11667 202.859 8.4C203.326 8.66667 203.692 9.025 203.959 9.475C204.226 9.925 204.359 10.425 204.359 10.975V15C204.359 15.55 204.226 16.0583 203.959 16.525C203.692 16.975 203.326 17.3333 202.859 17.6C202.409 17.8667 201.909 18 201.359 18H189.359ZM212.431 18L205.881 -7.15256e-07H208.031L213.306 14.45L218.556 -7.15256e-07H221.006L226.281 14.45L231.506 -7.15256e-07H233.706L227.156 18H225.381L219.781 2.625L214.181 18H212.431ZM238.238 18C237.688 18 237.179 17.8667 236.713 17.6C236.263 17.3333 235.904 16.975 235.638 16.525C235.371 16.0583 235.238 15.55 235.238 15V3C235.238 2.45 235.371 1.95 235.638 1.5C235.904 1.03333 236.263 0.666666 236.713 0.399999C237.179 0.133332 237.688 -7.15256e-07 238.238 -7.15256e-07H250.238C250.788 -7.15256e-07 251.288 0.133332 251.738 0.399999C252.204 0.666666 252.571 1.03333 252.838 1.5C253.104 1.95 253.238 2.45 253.238 3V15C253.238 15.55 253.104 16.0583 252.838 16.525C252.571 16.975 252.204 17.3333 251.738 17.6C251.288 17.8667 250.788 18 250.238 18H238.238ZM238.238 15.975H250.238C250.504 15.975 250.729 15.8833 250.913 15.7C251.113 15.5 251.213 15.2667 251.213 15V3C251.213 2.73333 251.113 2.50833 250.913 2.325C250.729 2.125 250.504 2.025 250.238 2.025H238.238C237.971 2.025 237.738 2.125 237.538 2.325C237.354 2.50833 237.263 2.73333 237.263 3V15C237.263 15.2667 237.354 15.5 237.538 15.7C237.738 15.8833 237.971 15.975 238.238 15.975ZM271.191 18L265.316 11H267.966L273.866 17.975V18H271.191ZM255.991 18V0.024999H270.991C271.541 0.024999 272.041 0.166666 272.491 0.449999C272.957 0.716666 273.324 1.075 273.591 1.525C273.857 1.975 273.991 2.475 273.991 3.025V8.3C273.991 8.85 273.857 9.35 273.591 9.8C273.324 10.25 272.957 10.6167 272.491 10.9C272.041 11.1667 271.541 11.3 270.991 11.3H258.016V18H255.991ZM258.991 9.25H270.991C271.257 9.25 271.482 9.15833 271.666 8.975C271.866 8.79167 271.966 8.56667 271.966 8.3V3.025C271.966 2.75833 271.866 2.53333 271.666 2.35C271.482 2.15 271.257 2.05 270.991 2.05H258.991C258.724 2.05 258.491 2.15 258.291 2.35C258.107 2.53333 258.016 2.75833 258.016 3.025V8.3C258.016 8.56667 258.107 8.79167 258.291 8.975C258.491 9.15833 258.724 9.25 258.991 9.25ZM276.671 18V-7.15256e-07H291.671C292.221 -7.15256e-07 292.721 0.133332 293.171 0.399999C293.637 0.666666 294.004 1.03333 294.271 1.5C294.537 1.95 294.671 2.45 294.671 3V15C294.671 15.55 294.537 16.0583 294.271 16.525C294.004 16.975 293.637 17.3333 293.171 17.6C292.721 17.8667 292.221 18 291.671 18H276.671ZM279.671 15.975H291.671C291.937 15.975 292.162 15.8833 292.346 15.7C292.546 15.5 292.646 15.2667 292.646 15V3C292.646 2.73333 292.546 2.50833 292.346 2.325C292.162 2.125 291.937 2.025 291.671 2.025H279.671C279.404 2.025 279.171 2.125 278.971 2.325C278.787 2.50833 278.696 2.73333 278.696 3V15C278.696 15.2667 278.787 15.5 278.971 15.7C279.171 15.8833 279.404 15.975 279.671 15.975Z" fill="#7E7D7D"/>
</svg>
