<svg width="1229" height="37" viewBox="0 0 1229 37" fill="none" xmlns="http://www.w3.org/2000/svg">
<path d="M6.8 37C5.7 37 4.68333 36.7333 3.75 36.2C2.85 35.6667 2.13333 34.95 1.6 34.05C1.06667 33.1167 0.8 32.1 0.8 31L0.8 7C0.8 5.9 1.06667 4.9 1.6 4C2.13333 3.06667 2.85 2.33333 3.75 1.8C4.68333 1.26666 5.7 0.999999 6.8 0.999999L36.7 0.999999V5.05L6.8 5.05C6.26667 5.05 5.8 5.25 5.4 5.65C5.03333 6.01666 4.85 6.46666 4.85 7L4.85 31C4.85 31.5333 5.03333 32 5.4 32.4C5.8 32.7667 6.26667 32.95 6.8 32.95L36.7 32.95V37L6.8 37ZM42.0133 37L42.0133 7C42.0133 5.9 42.2799 4.9 42.8133 4C43.3466 3.06667 44.0633 2.33333 44.9633 1.8C45.8966 1.26666 46.9133 0.999999 48.0133 0.999999L72.0133 0.999999C73.1133 0.999999 74.1133 1.26666 75.0133 1.8C75.9466 2.33333 76.68 3.06667 77.2133 4C77.7466 4.9 78.0133 5.9 78.0133 7L78.0133 37H73.9633L73.9633 23.85L46.0633 23.85V37H42.0133ZM46.0633 19.8L73.9633 19.8V7C73.9633 6.46666 73.7633 6.01666 73.3633 5.65C72.9966 5.25 72.5466 5.05 72.0133 5.05L48.0133 5.05C47.4799 5.05 47.0133 5.25 46.6133 5.65C46.2466 6.01666 46.0633 6.46666 46.0633 7L46.0633 19.8ZM83.7102 37L83.7102 0.999999H89.2602L115.66 32.4L115.66 0.999999H119.71L119.71 37H114.16L87.7602 5.6L87.7602 37H83.7102ZM138.935 37V0.999999H144.485L170.885 32.4V0.999999H174.935V37H169.385L142.985 5.6V37H138.935ZM186.436 37C185.336 37 184.32 36.7333 183.386 36.2C182.486 35.6667 181.77 34.95 181.236 34.05C180.703 33.1167 180.436 32.1 180.436 31V7C180.436 5.9 180.703 4.9 181.236 4C181.77 3.06667 182.486 2.33333 183.386 1.8C184.32 1.26666 185.336 0.999999 186.436 0.999999L210.436 0.999999C211.536 0.999999 212.536 1.26666 213.436 1.8C214.37 2.33333 215.103 3.06667 215.636 4C216.17 4.9 216.436 5.9 216.436 7V31C216.436 32.1 216.17 33.1167 215.636 34.05C215.103 34.95 214.37 35.6667 213.436 36.2C212.536 36.7333 211.536 37 210.436 37L186.436 37ZM186.436 32.95L210.436 32.95C210.97 32.95 211.42 32.7667 211.786 32.4C212.186 32 212.386 31.5333 212.386 31V7C212.386 6.46666 212.186 6.01666 211.786 5.65C211.42 5.25 210.97 5.05 210.436 5.05L186.436 5.05C185.903 5.05 185.436 5.25 185.036 5.65C184.67 6.01666 184.486 6.46666 184.486 7V31C184.486 31.5333 184.67 32 185.036 32.4C185.436 32.7667 185.903 32.95 186.436 32.95ZM236.143 37V5.05L220.143 5.05V0.999999L256.143 0.999999V5.05L240.193 5.05V37H236.143ZM273.605 37V0.999999L306.455 0.999999V5.05L277.655 5.05V16.95L300.805 16.95V21.05L277.655 21.05V37H273.605ZM310.138 37V0.999999L314.238 0.999999V37H310.138ZM320.331 37V0.999999L325.881 0.999999L352.281 32.4V0.999999H356.331V37H350.781L324.381 5.6V37H320.331ZM362.033 37V0.999999L392.033 0.999999C393.133 0.999999 394.133 1.26666 395.033 1.8C395.966 2.33333 396.699 3.06667 397.233 4C397.766 4.9 398.033 5.9 398.033 7V31C398.033 32.1 397.766 33.1167 397.233 34.05C396.699 34.95 395.966 35.6667 395.033 36.2C394.133 36.7333 393.133 37 392.033 37L362.033 37ZM368.033 32.95L392.033 32.95C392.566 32.95 393.016 32.7667 393.383 32.4C393.783 32 393.983 31.5333 393.983 31V7C393.983 6.46666 393.783 6.01666 393.383 5.65C393.016 5.25 392.566 5.05 392.033 5.05L368.033 5.05C367.499 5.05 367.033 5.25 366.633 5.65C366.266 6.01666 366.083 6.46666 366.083 7V31C366.083 31.5333 366.266 32 366.633 32.4C367.033 32.7667 367.499 32.95 368.033 32.95ZM429.305 37L416.205 0.999999H420.505L431.055 29.9L441.555 0.999999L446.455 0.999999L457.005 29.9L467.455 0.999999L471.855 0.999999L458.755 37H455.205L444.005 6.25L432.805 37H429.305ZM476.241 37V0.999999L480.291 0.999999V16.95L509.041 16.95V0.999999L513.141 0.999999V37H509.041V21.05L480.291 21.05V37H476.241ZM524.62 37C523.52 37 522.503 36.7333 521.57 36.2C520.67 35.6667 519.953 34.95 519.42 34.05C518.887 33.1167 518.62 32.1 518.62 31V7C518.62 5.9 518.887 4.9 519.42 4C519.953 3.06667 520.67 2.33333 521.57 1.8C522.503 1.26666 523.52 0.999999 524.62 0.999999L548.62 0.999999C549.72 0.999999 550.72 1.26666 551.62 1.8C552.553 2.33333 553.287 3.06667 553.82 4C554.353 4.9 554.62 5.9 554.62 7V31C554.62 32.1 554.353 33.1167 553.82 34.05C553.287 34.95 552.553 35.6667 551.62 36.2C550.72 36.7333 549.72 37 548.62 37H524.62ZM524.62 32.95H548.62C549.153 32.95 549.603 32.7667 549.97 32.4C550.37 32 550.57 31.5333 550.57 31V7C550.57 6.46666 550.37 6.01666 549.97 5.65C549.603 5.25 549.153 5.05 548.62 5.05L524.62 5.05C524.087 5.05 523.62 5.25 523.22 5.65C522.853 6.01666 522.67 6.46666 522.67 7V31C522.67 31.5333 522.853 32 523.22 32.4C523.62 32.7667 524.087 32.95 524.62 32.95ZM589.099 37V23.45L572.549 0.999999H577.199L591.149 18.6L604.949 0.999999H609.699L593.149 23.45V37H589.099ZM619.932 37C618.832 37 617.816 36.7333 616.882 36.2C615.982 35.6667 615.266 34.95 614.732 34.05C614.199 33.1167 613.932 32.1 613.932 31V7C613.932 5.9 614.199 4.9 614.732 4C615.266 3.06667 615.982 2.33333 616.882 1.8C617.816 1.26666 618.832 0.999999 619.932 0.999999L643.932 0.999999C645.032 0.999999 646.032 1.26666 646.932 1.8C647.866 2.33333 648.599 3.06667 649.132 4C649.666 4.9 649.932 5.9 649.932 7V31C649.932 32.1 649.666 33.1167 649.132 34.05C648.599 34.95 647.866 35.6667 646.932 36.2C646.032 36.7333 645.032 37 643.932 37L619.932 37ZM619.932 32.95L643.932 32.95C644.466 32.95 644.916 32.7667 645.282 32.4C645.682 32 645.882 31.5333 645.882 31V7C645.882 6.46666 645.682 6.01666 645.282 5.65C644.916 5.25 644.466 5.05 643.932 5.05L619.932 5.05C619.399 5.05 618.932 5.25 618.532 5.65C618.166 6.01666 617.982 6.46666 617.982 7V31C617.982 31.5333 618.166 32 618.532 32.4C618.932 32.7667 619.399 32.95 619.932 32.95ZM661.339 37C660.239 37 659.222 36.7333 658.289 36.2C657.389 35.6667 656.672 34.95 656.139 34.05C655.605 33.1167 655.339 32.1 655.339 31V0.999999H659.389V31C659.389 31.5333 659.572 32 659.939 32.4C660.339 32.7667 660.805 32.95 661.339 32.95L685.339 32.95C685.872 32.95 686.322 32.7667 686.689 32.4C687.089 32 687.289 31.5333 687.289 31V0.999999L691.339 0.999999V31C691.339 32.1 691.072 33.1167 690.539 34.05C690.005 34.95 689.272 35.6667 688.339 36.2C687.439 36.7333 686.439 37 685.339 37L661.339 37ZM710.568 37V7C710.568 5.9 710.835 4.9 711.368 4C711.901 3.06667 712.618 2.33333 713.518 1.8C714.451 1.26666 715.468 0.999999 716.568 0.999999L740.568 0.999999C741.668 0.999999 742.668 1.26666 743.568 1.8C744.501 2.33333 745.235 3.06667 745.768 4C746.301 4.9 746.568 5.9 746.568 7V37H742.518V23.85L714.618 23.85V37H710.568ZM714.618 19.8L742.518 19.8V7C742.518 6.46666 742.318 6.01666 741.918 5.65C741.551 5.25 741.101 5.05 740.568 5.05L716.568 5.05C716.035 5.05 715.568 5.25 715.168 5.65C714.801 6.01666 714.618 6.46666 714.618 7V19.8ZM782.665 37L770.915 23L776.215 23L788.015 36.95V37H782.665ZM752.265 37V1.05L782.265 1.05C783.365 1.05 784.365 1.33333 785.265 1.9C786.198 2.43333 786.932 3.15 787.465 4.05C787.998 4.95 788.265 5.95 788.265 7.05V17.6C788.265 18.7 787.998 19.7 787.465 20.6C786.932 21.5 786.198 22.2333 785.265 22.8C784.365 23.3333 783.365 23.6 782.265 23.6L756.315 23.6V37H752.265ZM758.265 19.5L782.265 19.5C782.798 19.5 783.248 19.3167 783.615 18.95C784.015 18.5833 784.215 18.1333 784.215 17.6V7.05C784.215 6.51667 784.015 6.06667 783.615 5.7C783.248 5.3 782.798 5.1 782.265 5.1L758.265 5.1C757.732 5.1 757.265 5.3 756.865 5.7C756.498 6.06667 756.315 6.51667 756.315 7.05V17.6C756.315 18.1333 756.498 18.5833 756.865 18.95C757.265 19.3167 757.732 19.5 758.265 19.5ZM793.625 37V0.999999L826.475 0.999999V5.05L797.675 5.05V16.95L820.825 16.95V21.05L797.675 21.05V32.95L826.475 32.95V37L793.625 37ZM845.479 37V0.949999H849.529V32.95L881.479 32.95V37L845.479 37ZM890.294 37C889.194 37 888.177 36.7333 887.244 36.2C886.344 35.6667 885.627 34.95 885.094 34.05C884.56 33.1167 884.294 32.1 884.294 31V7C884.294 5.9 884.56 4.9 885.094 4C885.627 3.06667 886.344 2.33333 887.244 1.8C888.177 1.26666 889.194 0.999999 890.294 0.999999L914.294 0.999999C915.394 0.999999 916.394 1.26666 917.294 1.8C918.227 2.33333 918.96 3.06667 919.494 4C920.027 4.9 920.294 5.9 920.294 7V31C920.294 32.1 920.027 33.1167 919.494 34.05C918.96 34.95 918.227 35.6667 917.294 36.2C916.394 36.7333 915.394 37 914.294 37L890.294 37ZM890.294 32.95L914.294 32.95C914.827 32.95 915.277 32.7667 915.644 32.4C916.044 32 916.244 31.5333 916.244 31V7C916.244 6.46666 916.044 6.01666 915.644 5.65C915.277 5.25 914.827 5.05 914.294 5.05L890.294 5.05C889.76 5.05 889.294 5.25 888.894 5.65C888.527 6.01666 888.344 6.46666 888.344 7V31C888.344 31.5333 888.527 32 888.894 32.4C889.294 32.7667 889.76 32.95 890.294 32.95ZM931.7 37C930.6 37 929.583 36.7333 928.65 36.2C927.75 35.6667 927.033 34.95 926.5 34.05C925.967 33.1167 925.7 32.1 925.7 31V7C925.7 5.9 925.967 4.9 926.5 4C927.033 3.06667 927.75 2.33333 928.65 1.8C929.583 1.26666 930.6 0.999999 931.7 0.999999L955.7 0.999999C956.8 0.999999 957.8 1.26666 958.7 1.8C959.633 2.33333 960.367 3.06667 960.9 4C961.433 4.9 961.7 5.9 961.7 7V31C961.7 32.1 961.433 33.1167 960.9 34.05C960.367 34.95 959.633 35.6667 958.7 36.2C957.8 36.7333 956.8 37 955.7 37L931.7 37ZM931.7 32.95L955.7 32.95C956.233 32.95 956.683 32.7667 957.05 32.4C957.45 32 957.65 31.5333 957.65 31V7C957.65 6.46666 957.45 6.01666 957.05 5.65C956.683 5.25 956.233 5.05 955.7 5.05L931.7 5.05C931.167 5.05 930.7 5.25 930.3 5.65C929.933 6.01666 929.75 6.46666 929.75 7V31C929.75 31.5333 929.933 32 930.3 32.4C930.7 32.7667 931.167 32.95 931.7 32.95ZM967.256 37V0.999999H971.356V16.95L982.956 16.95L996.356 0.999999L1001.56 0.999999V1.05L986.506 19L1001.61 36.95V37H996.356L982.956 21.05H971.356V37H967.256ZM1007.55 37V0.999999L1011.65 0.999999V37H1007.55ZM1017.74 37V0.999999L1023.29 0.999999L1049.69 32.4V0.999999L1053.74 0.999999V37H1048.19L1021.79 5.6V37H1017.74ZM1065.34 37C1064.24 37 1063.23 36.7333 1062.29 36.2C1061.39 35.6667 1060.68 34.95 1060.14 34.05C1059.61 33.1167 1059.34 32.1 1059.34 31V7C1059.34 5.9 1059.61 4.9 1060.14 4C1060.68 3.06667 1061.39 2.33333 1062.29 1.8C1063.23 1.26666 1064.24 0.999999 1065.34 0.999999L1089.34 0.999999C1090.44 0.999999 1091.44 1.26666 1092.34 1.8C1093.28 2.33333 1094.01 3.06667 1094.54 4C1095.08 4.9 1095.34 5.9 1095.34 7V8.45L1091.29 8.45V7C1091.29 6.46666 1091.09 6.01666 1090.69 5.65C1090.33 5.25 1089.88 5.05 1089.34 5.05L1065.34 5.05C1064.81 5.05 1064.34 5.25 1063.94 5.65C1063.58 6.01666 1063.39 6.46666 1063.39 7V31C1063.39 31.5333 1063.58 32 1063.94 32.4C1064.34 32.7667 1064.81 32.95 1065.34 32.95L1089.34 32.95C1089.88 32.95 1090.33 32.7667 1090.69 32.4C1091.09 32 1091.29 31.5333 1091.29 31V22.1H1082.39V18L1095.34 18V31C1095.34 32.1 1095.08 33.1167 1094.54 34.05C1094.01 34.95 1093.28 35.6667 1092.34 36.2C1091.44 36.7333 1090.44 37 1089.34 37L1065.34 37ZM1114.57 37V0.999999L1147.42 0.999999V5.05L1118.62 5.05V16.95L1141.77 16.95V21.05L1118.62 21.05V37H1114.57ZM1156.5 37C1155.4 37 1154.39 36.7333 1153.45 36.2C1152.55 35.6667 1151.84 34.95 1151.3 34.05C1150.77 33.1167 1150.5 32.1 1150.5 31V7C1150.5 5.9 1150.77 4.9 1151.3 4C1151.84 3.06667 1152.55 2.33333 1153.45 1.8C1154.39 1.26666 1155.4 0.999999 1156.5 0.999999L1180.5 0.999999C1181.6 0.999999 1182.6 1.26666 1183.5 1.8C1184.44 2.33333 1185.17 3.06667 1185.7 4C1186.24 4.9 1186.5 5.9 1186.5 7V31C1186.5 32.1 1186.24 33.1167 1185.7 34.05C1185.17 34.95 1184.44 35.6667 1183.5 36.2C1182.6 36.7333 1181.6 37 1180.5 37L1156.5 37ZM1156.5 32.95L1180.5 32.95C1181.04 32.95 1181.49 32.7667 1181.85 32.4C1182.25 32 1182.45 31.5333 1182.45 31V7C1182.45 6.46666 1182.25 6.01666 1181.85 5.65C1181.49 5.25 1181.04 5.05 1180.5 5.05L1156.5 5.05C1155.97 5.05 1155.5 5.25 1155.1 5.65C1154.74 6.01666 1154.55 6.46666 1154.55 7V31C1154.55 31.5333 1154.74 32 1155.1 32.4C1155.5 32.7667 1155.97 32.95 1156.5 32.95ZM1222.41 37L1210.66 23L1215.96 23L1227.76 36.95V37H1222.41ZM1192.01 37V1.05L1222.01 1.05C1223.11 1.05 1224.11 1.33333 1225.01 1.9C1225.94 2.43333 1226.68 3.15 1227.21 4.05C1227.74 4.95 1228.01 5.95 1228.01 7.05V17.6C1228.01 18.7 1227.74 19.7 1227.21 20.6C1226.68 21.5 1225.94 22.2333 1225.01 22.8C1224.11 23.3333 1223.11 23.6 1222.01 23.6L1196.06 23.6V37H1192.01ZM1198.01 19.5L1222.01 19.5C1222.54 19.5 1222.99 19.3167 1223.36 18.95C1223.76 18.5833 1223.96 18.1333 1223.96 17.6V7.05C1223.96 6.51667 1223.76 6.06667 1223.36 5.7C1222.99 5.3 1222.54 5.1 1222.01 5.1L1198.01 5.1C1197.48 5.1 1197.01 5.3 1196.61 5.7C1196.24 6.06667 1196.06 6.51667 1196.06 7.05V17.6C1196.06 18.1333 1196.24 18.5833 1196.61 18.95C1197.01 19.3167 1197.48 19.5 1198.01 19.5Z" fill="#5A4B6D"/>
</svg>
