<svg width="110" height="22" viewBox="0 0 110 22" fill="none" xmlns="http://www.w3.org/2000/svg">
<path d="M0.71 22V0.37H3.14V19.57H22.31V22H0.71ZM27.5989 22C26.9389 22 26.3289 21.84 25.7689 21.52C25.2289 21.2 24.7989 20.77 24.4789 20.23C24.1589 19.67 23.9989 19.06 23.9989 18.4V4C23.9989 3.34 24.1589 2.74 24.4789 2.2C24.7989 1.64 25.2289 1.2 25.7689 0.879998C26.3289 0.559999 26.9389 0.399999 27.5989 0.399999H41.9989C42.6589 0.399999 43.2589 0.559999 43.7989 0.879998C44.3589 1.2 44.7989 1.64 45.1189 2.2C45.4389 2.74 45.5989 3.34 45.5989 4V18.4C45.5989 19.06 45.4389 19.67 45.1189 20.23C44.7989 20.77 44.3589 21.2 43.7989 21.52C43.2589 21.84 42.6589 22 41.9989 22H27.5989ZM27.5989 19.57H41.9989C42.3189 19.57 42.5889 19.46 42.8089 19.24C43.0489 19 43.1689 18.72 43.1689 18.4V4C43.1689 3.68 43.0489 3.41 42.8089 3.19C42.5889 2.95 42.3189 2.83 41.9989 2.83H27.5989C27.2789 2.83 26.9989 2.95 26.7589 3.19C26.5389 3.41 26.4289 3.68 26.4289 4V18.4C26.4289 18.72 26.5389 19 26.7589 19.24C26.9989 19.46 27.2789 19.57 27.5989 19.57ZM52.5027 22C51.8427 22 51.2327 21.84 50.6727 21.52C50.1327 21.2 49.7027 20.77 49.3827 20.23C49.0627 19.67 48.9027 19.06 48.9027 18.4V4C48.9027 3.34 49.0627 2.74 49.3827 2.2C49.7027 1.64 50.1327 1.2 50.6727 0.879998C51.2327 0.559999 51.8427 0.399999 52.5027 0.399999H66.9027C67.5627 0.399999 68.1627 0.559999 68.7027 0.879998C69.2627 1.2 69.7027 1.64 70.0227 2.2C70.3427 2.74 70.5027 3.34 70.5027 4V4.87H68.0727V4C68.0727 3.68 67.9527 3.41 67.7127 3.19C67.4927 2.95 67.2227 2.83 66.9027 2.83H52.5027C52.1827 2.83 51.9027 2.95 51.6627 3.19C51.4427 3.41 51.3327 3.68 51.3327 4V18.4C51.3327 18.72 51.4427 19 51.6627 19.24C51.9027 19.46 52.1827 19.57 52.5027 19.57H66.9027C67.2227 19.57 67.4927 19.46 67.7127 19.24C67.9527 19 68.0727 18.72 68.0727 18.4V13.06H62.7327V10.6H70.5027V18.4C70.5027 19.06 70.3427 19.67 70.0227 20.23C69.7027 20.77 69.2627 21.2 68.7027 21.52C68.1627 21.84 67.5627 22 66.9027 22H52.5027ZM82.2788 22V0.399999H84.7388V22H82.2788ZM88.3948 22V0.399999H91.7248L107.565 19.24V0.399999H109.995V22H106.665L90.8248 3.16V22H88.3948Z" fill="white"/>
</svg>
