<svg width="688" height="36" viewBox="0 0 688 36" fill="none" xmlns="http://www.w3.org/2000/svg">
<path d="M0.3 36L0.3 -1.43051e-06L4.4 -1.43051e-06L4.4 36H0.3ZM10.4934 36L10.4934 -1.43051e-06L16.0434 -1.43051e-06L42.4434 31.4L42.4434 -1.43051e-06H46.4934L46.4934 36H40.9434L14.5434 4.6L14.5434 36H10.4934ZM58.0949 36C56.9949 36 55.9783 35.7333 55.0449 35.2C54.1449 34.6667 53.4283 33.95 52.8949 33.05C52.3616 32.1167 52.0949 31.1 52.0949 30L52.0949 6C52.0949 4.9 52.3616 3.9 52.8949 3C53.4283 2.06667 54.1449 1.33333 55.0449 0.799997C55.9783 0.266665 56.9949 -1.43051e-06 58.0949 -1.43051e-06L87.9949 -1.43051e-06V4.05L58.0949 4.05C57.5616 4.05 57.0949 4.25 56.6949 4.65C56.3283 5.01666 56.1449 5.46666 56.1449 6L56.1449 30C56.1449 30.5333 56.3283 31 56.6949 31.4C57.0949 31.7667 57.5616 31.95 58.0949 31.95L87.9949 31.95V36L58.0949 36ZM99.1082 36C98.0082 36 96.9915 35.7333 96.0582 35.2C95.1582 34.6667 94.4415 33.95 93.9082 33.05C93.3749 32.1167 93.1082 31.1 93.1082 30L93.1082 6C93.1082 4.9 93.3749 3.9 93.9082 3C94.4415 2.06667 95.1582 1.33333 96.0582 0.799997C96.9915 0.266665 98.0082 -1.43051e-06 99.1082 -1.43051e-06L123.108 -1.43051e-06C124.208 -1.43051e-06 125.208 0.266665 126.108 0.799997C127.042 1.33333 127.775 2.06667 128.308 3C128.842 3.9 129.108 4.9 129.108 6V30C129.108 31.1 128.842 32.1167 128.308 33.05C127.775 33.95 127.042 34.6667 126.108 35.2C125.208 35.7333 124.208 36 123.108 36L99.1082 36ZM99.1082 31.95L123.108 31.95C123.642 31.95 124.092 31.7667 124.458 31.4C124.858 31 125.058 30.5333 125.058 30V6C125.058 5.46666 124.858 5.01666 124.458 4.65C124.092 4.25 123.642 4.05 123.108 4.05L99.1082 4.05C98.5749 4.05 98.1082 4.25 97.7082 4.65C97.3415 5.01666 97.1582 5.46666 97.1582 6L97.1582 30C97.1582 30.5333 97.3415 31 97.7082 31.4C98.1082 31.7667 98.5749 31.95 99.1082 31.95ZM165.014 36L153.264 22H158.564L170.364 35.95V36H165.014ZM134.614 36V0.0499979L164.614 0.0499979C165.714 0.0499979 166.714 0.333332 167.614 0.899999C168.548 1.43333 169.281 2.15 169.814 3.05C170.348 3.95 170.614 4.95 170.614 6.05V16.6C170.614 17.7 170.348 18.7 169.814 19.6C169.281 20.5 168.548 21.2333 167.614 21.8C166.714 22.3333 165.714 22.6 164.614 22.6L138.664 22.6V36H134.614ZM140.614 18.5L164.614 18.5C165.148 18.5 165.598 18.3167 165.964 17.95C166.364 17.5833 166.564 17.1333 166.564 16.6V6.05C166.564 5.51667 166.364 5.06667 165.964 4.7C165.598 4.3 165.148 4.1 164.614 4.1L140.614 4.1C140.081 4.1 139.614 4.3 139.214 4.7C138.848 5.06667 138.664 5.51667 138.664 6.05V16.6C138.664 17.1333 138.848 17.5833 139.214 17.95C139.614 18.3167 140.081 18.5 140.614 18.5ZM206.274 36L194.524 22L199.824 22L211.624 35.95V36H206.274ZM175.874 36V0.0499979L205.874 0.0499979C206.974 0.0499979 207.974 0.333332 208.874 0.899999C209.808 1.43333 210.541 2.15 211.074 3.05C211.608 3.95 211.874 4.95 211.874 6.05V16.6C211.874 17.7 211.608 18.7 211.074 19.6C210.541 20.5 209.808 21.2333 208.874 21.8C207.974 22.3333 206.974 22.6 205.874 22.6L179.924 22.6V36H175.874ZM181.874 18.5L205.874 18.5C206.408 18.5 206.858 18.3167 207.224 17.95C207.624 17.5833 207.824 17.1333 207.824 16.6V6.05C207.824 5.51667 207.624 5.06667 207.224 4.7C206.858 4.3 206.408 4.1 205.874 4.1L181.874 4.1C181.341 4.1 180.874 4.3 180.474 4.7C180.108 5.06667 179.924 5.51667 179.924 6.05V16.6C179.924 17.1333 180.108 17.5833 180.474 17.95C180.874 18.3167 181.341 18.5 181.874 18.5ZM217.234 36V-1.43051e-06L250.084 -1.43051e-06V4.05L221.284 4.05V15.95L244.434 15.95V20.05L221.284 20.05V31.95L250.084 31.95V36L217.234 36ZM261.415 36C260.315 36 259.299 35.7333 258.365 35.2C257.465 34.6667 256.749 33.95 256.215 33.05C255.682 32.1167 255.415 31.1 255.415 30V6C255.415 4.9 255.682 3.9 256.215 3C256.749 2.06667 257.465 1.33333 258.365 0.799997C259.299 0.266665 260.315 -1.43051e-06 261.415 -1.43051e-06L291.315 -1.43051e-06V4.05L261.415 4.05C260.882 4.05 260.415 4.25 260.015 4.65C259.649 5.01666 259.465 5.46666 259.465 6V30C259.465 30.5333 259.649 31 260.015 31.4C260.415 31.7667 260.882 31.95 261.415 31.95L291.315 31.95V36L261.415 36ZM310.729 36V4.05L294.729 4.05V-1.43051e-06L330.729 -1.43051e-06V4.05L314.779 4.05V36H310.729ZM348.091 36V0.0499979L378.091 0.0499979C379.191 0.0499979 380.191 0.333332 381.091 0.899999C382.024 1.43333 382.758 2.15 383.291 3.05C383.824 3.95 384.091 4.95 384.091 6.05V16.6C384.091 17.7 383.824 18.7 383.291 19.6C382.758 20.5 382.024 21.2333 381.091 21.8C380.191 22.3333 379.191 22.6 378.091 22.6L352.141 22.6V36H348.091ZM354.091 18.5L378.091 18.5C378.624 18.5 379.074 18.3167 379.441 17.95C379.841 17.5833 380.041 17.1333 380.041 16.6V6.05C380.041 5.51667 379.841 5.06667 379.441 4.7C379.074 4.3 378.624 4.1 378.091 4.1L354.091 4.1C353.558 4.1 353.091 4.3 352.691 4.7C352.324 5.06667 352.141 5.51667 352.141 6.05V16.6C352.141 17.1333 352.324 17.5833 352.691 17.95C353.091 18.3167 353.558 18.5 354.091 18.5ZM388.23 36V6C388.23 4.9 388.497 3.9 389.03 3C389.563 2.06667 390.28 1.33333 391.18 0.799997C392.113 0.266665 393.13 -1.43051e-06 394.23 -1.43051e-06L418.23 -1.43051e-06C419.33 -1.43051e-06 420.33 0.266665 421.23 0.799997C422.163 1.33333 422.897 2.06667 423.43 3C423.963 3.9 424.23 4.9 424.23 6V36H420.18V22.85L392.28 22.85V36H388.23ZM392.28 18.8L420.18 18.8V6C420.18 5.46666 419.98 5.01666 419.58 4.65C419.213 4.25 418.763 4.05 418.23 4.05L394.23 4.05C393.697 4.05 393.23 4.25 392.83 4.65C392.463 5.01666 392.28 5.46666 392.28 6V18.8ZM435.677 36C434.577 36 433.56 35.7333 432.627 35.2C431.727 34.6667 431.01 33.95 430.477 33.05C429.944 32.1167 429.677 31.1 429.677 30V28.6H433.727V30C433.727 30.5333 433.91 31 434.277 31.4C434.677 31.7667 435.144 31.95 435.677 31.95H459.677C460.21 31.95 460.66 31.7667 461.027 31.4C461.427 31 461.627 30.5333 461.627 30V21.95C461.627 21.4167 461.427 20.9667 461.027 20.6C460.66 20.2333 460.21 20.05 459.677 20.05H435.677C434.577 20.05 433.56 19.7833 432.627 19.25C431.727 18.6833 431.01 17.95 430.477 17.05C429.944 16.15 429.677 15.15 429.677 14.05V6C429.677 4.9 429.944 3.9 430.477 3C431.01 2.06667 431.727 1.33333 432.627 0.799997C433.56 0.266665 434.577 -1.43051e-06 435.677 -1.43051e-06L459.677 -1.43051e-06C460.777 -1.43051e-06 461.777 0.266665 462.677 0.799997C463.61 1.33333 464.344 2.06667 464.877 3C465.41 3.9 465.677 4.9 465.677 6V7.4H461.627V6C461.627 5.46666 461.427 5.01666 461.027 4.65C460.66 4.25 460.21 4.05 459.677 4.05L435.677 4.05C435.144 4.05 434.677 4.25 434.277 4.65C433.91 5.01666 433.727 5.46666 433.727 6V14.05C433.727 14.5833 433.91 15.0333 434.277 15.4C434.677 15.7667 435.144 15.95 435.677 15.95L459.677 15.95C460.777 15.95 461.777 16.2333 462.677 16.8C463.61 17.3333 464.344 18.05 464.877 18.95C465.41 19.85 465.677 20.85 465.677 21.95V30C465.677 31.1 465.41 32.1167 464.877 33.05C464.344 33.95 463.61 34.6667 462.677 35.2C461.777 35.7333 460.777 36 459.677 36H435.677ZM476.79 36C475.69 36 474.674 35.7333 473.74 35.2C472.84 34.6667 472.124 33.95 471.59 33.05C471.057 32.1167 470.79 31.1 470.79 30V28.6H474.84V30C474.84 30.5333 475.024 31 475.39 31.4C475.79 31.7667 476.257 31.95 476.79 31.95H500.79C501.324 31.95 501.774 31.7667 502.14 31.4C502.54 31 502.74 30.5333 502.74 30V21.95C502.74 21.4167 502.54 20.9667 502.14 20.6C501.774 20.2333 501.324 20.05 500.79 20.05H476.79C475.69 20.05 474.674 19.7833 473.74 19.25C472.84 18.6833 472.124 17.95 471.59 17.05C471.057 16.15 470.79 15.15 470.79 14.05V6C470.79 4.9 471.057 3.9 471.59 3C472.124 2.06667 472.84 1.33333 473.74 0.799997C474.674 0.266665 475.69 -1.43051e-06 476.79 -1.43051e-06L500.79 -1.43051e-06C501.89 -1.43051e-06 502.89 0.266665 503.79 0.799997C504.724 1.33333 505.457 2.06667 505.99 3C506.524 3.9 506.79 4.9 506.79 6V7.4H502.74V6C502.74 5.46666 502.54 5.01666 502.14 4.65C501.774 4.25 501.324 4.05 500.79 4.05L476.79 4.05C476.257 4.05 475.79 4.25 475.39 4.65C475.024 5.01666 474.84 5.46666 474.84 6V14.05C474.84 14.5833 475.024 15.0333 475.39 15.4C475.79 15.7667 476.257 15.95 476.79 15.95L500.79 15.95C501.89 15.95 502.89 16.2333 503.79 16.8C504.724 17.3333 505.457 18.05 505.99 18.95C506.524 19.85 506.79 20.85 506.79 21.95V30C506.79 31.1 506.524 32.1167 505.99 33.05C505.457 33.95 504.724 34.6667 503.79 35.2C502.89 35.7333 501.89 36 500.79 36H476.79ZM522.934 36L509.834 -1.43051e-06L514.134 -1.43051e-06L524.684 28.9L535.184 -1.43051e-06H540.084L550.634 28.9L561.084 -1.43051e-06H565.484L552.384 36L548.834 36L537.634 5.25L526.434 36H522.934ZM574.548 36C573.448 36 572.431 35.7333 571.498 35.2C570.598 34.6667 569.881 33.95 569.348 33.05C568.814 32.1167 568.548 31.1 568.548 30V6C568.548 4.9 568.814 3.9 569.348 3C569.881 2.06667 570.598 1.33333 571.498 0.799997C572.431 0.266665 573.448 -1.43051e-06 574.548 -1.43051e-06L598.548 -1.43051e-06C599.648 -1.43051e-06 600.648 0.266665 601.548 0.799997C602.481 1.33333 603.214 2.06667 603.748 3C604.281 3.9 604.548 4.9 604.548 6V30C604.548 31.1 604.281 32.1167 603.748 33.05C603.214 33.95 602.481 34.6667 601.548 35.2C600.648 35.7333 599.648 36 598.548 36L574.548 36ZM574.548 31.95L598.548 31.95C599.081 31.95 599.531 31.7667 599.898 31.4C600.298 31 600.498 30.5333 600.498 30V6C600.498 5.46666 600.298 5.01666 599.898 4.65C599.531 4.25 599.081 4.05 598.548 4.05L574.548 4.05C574.014 4.05 573.548 4.25 573.148 4.65C572.781 5.01666 572.598 5.46666 572.598 6V30C572.598 30.5333 572.781 31 573.148 31.4C573.548 31.7667 574.014 31.95 574.548 31.95ZM640.454 36L628.704 22H634.004L645.804 35.95V36H640.454ZM610.054 36V0.0499979L640.054 0.0499979C641.154 0.0499979 642.154 0.333332 643.054 0.899999C643.987 1.43333 644.721 2.15 645.254 3.05C645.787 3.95 646.054 4.95 646.054 6.05V16.6C646.054 17.7 645.787 18.7 645.254 19.6C644.721 20.5 643.987 21.2333 643.054 21.8C642.154 22.3333 641.154 22.6 640.054 22.6L614.104 22.6V36H610.054ZM616.054 18.5L640.054 18.5C640.587 18.5 641.037 18.3167 641.404 17.95C641.804 17.5833 642.004 17.1333 642.004 16.6V6.05C642.004 5.51667 641.804 5.06667 641.404 4.7C641.037 4.3 640.587 4.1 640.054 4.1L616.054 4.1C615.521 4.1 615.054 4.3 614.654 4.7C614.287 5.06667 614.104 5.51667 614.104 6.05V16.6C614.104 17.1333 614.287 17.5833 614.654 17.95C615.054 18.3167 615.521 18.5 616.054 18.5ZM651.414 36V-1.43051e-06L681.414 -1.43051e-06C682.514 -1.43051e-06 683.514 0.266665 684.414 0.799997C685.347 1.33333 686.08 2.06667 686.614 3C687.147 3.9 687.414 4.9 687.414 6V30C687.414 31.1 687.147 32.1167 686.614 33.05C686.08 33.95 685.347 34.6667 684.414 35.2C683.514 35.7333 682.514 36 681.414 36H651.414ZM657.414 31.95H681.414C681.947 31.95 682.397 31.7667 682.764 31.4C683.164 31 683.364 30.5333 683.364 30V6C683.364 5.46666 683.164 5.01666 682.764 4.65C682.397 4.25 681.947 4.05 681.414 4.05L657.414 4.05C656.88 4.05 656.414 4.25 656.014 4.65C655.647 5.01666 655.464 5.46666 655.464 6V30C655.464 30.5333 655.647 31 656.014 31.4C656.414 31.7667 656.88 31.95 657.414 31.95Z" fill="#5A4B6D"/>
</svg>
