<svg width="185" height="22" viewBox="0 0 185 22" fill="none" xmlns="http://www.w3.org/2000/svg">
<path d="M10.2 22V2.83H0.6V0.399999H22.2V2.83H12.63V22H10.2ZM42.6837 22L35.6337 13.6H38.8137L45.8937 21.97V22H42.6837ZM24.4437 22V0.429999H42.4437C43.1037 0.429999 43.7037 0.599999 44.2437 0.939999C44.8037 1.26 45.2437 1.69 45.5637 2.23C45.8837 2.77 46.0437 3.37 46.0437 4.03V10.36C46.0437 11.02 45.8837 11.62 45.5637 12.16C45.2437 12.7 44.8037 13.14 44.2437 13.48C43.7037 13.8 43.1037 13.96 42.4437 13.96H26.8737V22H24.4437ZM28.0437 11.5H42.4437C42.7637 11.5 43.0337 11.39 43.2537 11.17C43.4937 10.95 43.6137 10.68 43.6137 10.36V4.03C43.6137 3.71 43.4937 3.44 43.2537 3.22C43.0337 2.98 42.7637 2.86 42.4437 2.86H28.0437C27.7237 2.86 27.4437 2.98 27.2037 3.22C26.9837 3.44 26.8737 3.71 26.8737 4.03V10.36C26.8737 10.68 26.9837 10.95 27.2037 11.17C27.4437 11.39 27.7237 11.5 28.0437 11.5ZM58.4095 22V13.87L48.4795 0.399999H51.2695L59.6395 10.96L67.9195 0.399999H70.7695L60.8395 13.87V22H58.4095ZM81.6033 22V4C81.6033 3.34 81.7633 2.74 82.0833 2.2C82.4033 1.64 82.8333 1.2 83.3733 0.879998C83.9333 0.559999 84.5433 0.399999 85.2033 0.399999H99.6033C100.263 0.399999 100.863 0.559999 101.403 0.879998C101.963 1.2 102.403 1.64 102.723 2.2C103.043 2.74 103.203 3.34 103.203 4V22H100.773V14.11H84.0333V22H81.6033ZM84.0333 11.68H100.773V4C100.773 3.68 100.653 3.41 100.413 3.19C100.193 2.95 99.9233 2.83 99.6033 2.83H85.2033C84.8833 2.83 84.6033 2.95 84.3633 3.19C84.1433 3.41 84.0333 3.68 84.0333 4V11.68ZM110.221 22C109.561 22 108.951 21.84 108.391 21.52C107.851 21.2 107.421 20.77 107.101 20.23C106.781 19.67 106.621 19.06 106.621 18.4V4C106.621 3.34 106.781 2.74 107.101 2.2C107.421 1.64 107.851 1.2 108.391 0.879998C108.951 0.559999 109.561 0.399999 110.221 0.399999H124.621C125.281 0.399999 125.881 0.559999 126.421 0.879998C126.981 1.2 127.421 1.64 127.741 2.2C128.061 2.74 128.221 3.34 128.221 4V4.87H125.791V4C125.791 3.68 125.671 3.41 125.431 3.19C125.211 2.95 124.941 2.83 124.621 2.83H110.221C109.901 2.83 109.621 2.95 109.381 3.19C109.161 3.41 109.051 3.68 109.051 4V18.4C109.051 18.72 109.161 19 109.381 19.24C109.621 19.46 109.901 19.57 110.221 19.57H124.621C124.941 19.57 125.211 19.46 125.431 19.24C125.671 19 125.791 18.72 125.791 18.4V13.06H120.451V10.6H128.221V18.4C128.221 19.06 128.061 19.67 127.741 20.23C127.421 20.77 126.981 21.2 126.421 21.52C125.881 21.84 125.281 22 124.621 22H110.221ZM131.584 22V4C131.584 3.34 131.744 2.74 132.064 2.2C132.384 1.64 132.814 1.2 133.354 0.879998C133.914 0.559999 134.524 0.399999 135.184 0.399999H149.584C150.244 0.399999 150.844 0.559999 151.384 0.879998C151.944 1.2 152.384 1.64 152.704 2.2C153.024 2.74 153.184 3.34 153.184 4V22H150.754V14.11H134.014V22H131.584ZM134.014 11.68H150.754V4C150.754 3.68 150.634 3.41 150.394 3.19C150.174 2.95 149.904 2.83 149.584 2.83H135.184C134.864 2.83 134.584 2.95 134.344 3.19C134.124 3.41 134.014 3.68 134.014 4V11.68ZM156.902 22V0.399999H159.362V22H156.902ZM163.018 22V0.399999H166.348L182.188 19.24V0.399999H184.618V22H181.288L165.448 3.16V22H163.018Z" fill="white"/>
</svg>
