<svg width="539" height="36" viewBox="0 0 539 36" fill="none" xmlns="http://www.w3.org/2000/svg">
<path d="M6.7 36C5.6 36 4.58333 35.7333 3.65 35.2C2.75 34.6667 2.03333 33.95 1.5 33.05C0.966667 32.1167 0.7 31.1 0.7 30L0.7 -1.43051e-06L4.75 -1.43051e-06L4.75 30C4.75 30.5333 4.93333 31 5.3 31.4C5.7 31.7667 6.16667 31.95 6.7 31.95L30.7 31.95C31.2333 31.95 31.6833 31.7667 32.05 31.4C32.45 31 32.65 30.5333 32.65 30L32.65 -1.43051e-06L36.7 -1.43051e-06L36.7 30C36.7 31.1 36.4333 32.1167 35.9 33.05C35.3667 33.95 34.6333 34.6667 33.7 35.2C32.8 35.7333 31.8 36 30.7 36L6.7 36ZM47.9563 36C46.8563 36 45.8396 35.7333 44.9063 35.2C44.0063 34.6667 43.2896 33.95 42.7563 33.05C42.2229 32.1167 41.9563 31.1 41.9563 30V28.6H46.0062V30C46.0062 30.5333 46.1896 31 46.5563 31.4C46.9563 31.7667 47.4229 31.95 47.9563 31.95L71.9563 31.95C72.4896 31.95 72.9396 31.7667 73.3063 31.4C73.7063 31 73.9063 30.5333 73.9063 30L73.9063 21.95C73.9063 21.4167 73.7063 20.9667 73.3063 20.6C72.9396 20.2333 72.4896 20.05 71.9563 20.05L47.9563 20.05C46.8563 20.05 45.8396 19.7833 44.9063 19.25C44.0063 18.6833 43.2896 17.95 42.7563 17.05C42.2229 16.15 41.9563 15.15 41.9563 14.05L41.9563 6C41.9563 4.9 42.2229 3.9 42.7563 3C43.2896 2.06667 44.0063 1.33333 44.9063 0.799997C45.8396 0.266665 46.8563 -1.43051e-06 47.9563 -1.43051e-06L71.9563 -1.43051e-06C73.0563 -1.43051e-06 74.0563 0.266665 74.9563 0.799997C75.8896 1.33333 76.6229 2.06667 77.1563 3C77.6896 3.9 77.9563 4.9 77.9563 6V7.4L73.9063 7.4V6C73.9063 5.46666 73.7063 5.01666 73.3063 4.65C72.9396 4.25 72.4896 4.05 71.9563 4.05L47.9563 4.05C47.4229 4.05 46.9563 4.25 46.5563 4.65C46.1896 5.01666 46.0062 5.46666 46.0062 6L46.0062 14.05C46.0062 14.5833 46.1896 15.0333 46.5563 15.4C46.9563 15.7667 47.4229 15.95 47.9563 15.95L71.9563 15.95C73.0563 15.95 74.0563 16.2333 74.9563 16.8C75.8896 17.3333 76.6229 18.05 77.1563 18.95C77.6896 19.85 77.9563 20.85 77.9563 21.95L77.9563 30C77.9563 31.1 77.6896 32.1167 77.1563 33.05C76.6229 33.95 75.8896 34.6667 74.9563 35.2C74.0563 35.7333 73.0563 36 71.9563 36L47.9563 36ZM83.4195 36L83.4195 -1.43051e-06L116.27 -1.43051e-06V4.05L87.4695 4.05V15.95L110.62 15.95V20.05L87.4695 20.05L87.4695 31.95L116.27 31.95V36L83.4195 36ZM152.001 36L140.251 22H145.551L157.351 35.95V36L152.001 36ZM121.601 36L121.601 0.0499979L151.601 0.0499979C152.701 0.0499979 153.701 0.333332 154.601 0.899999C155.534 1.43333 156.267 2.15 156.801 3.05C157.334 3.95 157.601 4.95 157.601 6.05V16.6C157.601 17.7 157.334 18.7 156.801 19.6C156.267 20.5 155.534 21.2333 154.601 21.8C153.701 22.3333 152.701 22.6 151.601 22.6H125.651L125.651 36H121.601ZM127.601 18.5H151.601C152.134 18.5 152.584 18.3167 152.951 17.95C153.351 17.5833 153.551 17.1333 153.551 16.6V6.05C153.551 5.51667 153.351 5.06667 152.951 4.7C152.584 4.3 152.134 4.1 151.601 4.1L127.601 4.1C127.067 4.1 126.601 4.3 126.201 4.7C125.834 5.06667 125.651 5.51667 125.651 6.05V16.6C125.651 17.1333 125.834 17.5833 126.201 17.95C126.601 18.3167 127.067 18.5 127.601 18.5ZM162.861 36V-1.43051e-06H168.411L194.811 31.4V-1.43051e-06H198.861V36L193.311 36L166.911 4.6V36H162.861ZM204.562 36V6C204.562 4.9 204.829 3.9 205.362 3C205.895 2.06667 206.612 1.33333 207.512 0.799997C208.445 0.266665 209.462 -1.43051e-06 210.562 -1.43051e-06L234.562 -1.43051e-06C235.662 -1.43051e-06 236.662 0.266665 237.562 0.799997C238.495 1.33333 239.229 2.06667 239.762 3C240.295 3.9 240.562 4.9 240.562 6V36H236.512V22.85H208.612V36H204.562ZM208.612 18.8H236.512V6C236.512 5.46666 236.312 5.01666 235.912 4.65C235.545 4.25 235.095 4.05 234.562 4.05L210.562 4.05C210.029 4.05 209.562 4.25 209.162 4.65C208.795 5.01666 208.612 5.46666 208.612 6V18.8ZM246.259 36V-1.43051e-06L251.809 -1.43051e-06L266.759 17.8L281.709 -1.43051e-06H287.259V36L283.209 36V4.6L266.759 24.15L250.309 4.6V36H246.259ZM292.746 36V-1.43051e-06L325.596 -1.43051e-06V4.05L296.796 4.05V15.95L319.946 15.95V20.05H296.796V31.95H325.596V36H292.746ZM358.75 36V4.05H342.75V-1.43051e-06L378.75 -1.43051e-06V4.05H362.8V36H358.75ZM382.589 36V6C382.589 4.9 382.856 3.9 383.389 3C383.923 2.06667 384.639 1.33333 385.539 0.799997C386.473 0.266665 387.489 -1.43051e-06 388.589 -1.43051e-06L412.589 -1.43051e-06C413.689 -1.43051e-06 414.689 0.266665 415.589 0.799997C416.523 1.33333 417.256 2.06667 417.789 3C418.323 3.9 418.589 4.9 418.589 6V36L414.539 36V22.85H386.639V36H382.589ZM386.639 18.8H414.539V6C414.539 5.46666 414.339 5.01666 413.939 4.65C413.573 4.25 413.123 4.05 412.589 4.05L388.589 4.05C388.056 4.05 387.589 4.25 387.189 4.65C386.823 5.01666 386.639 5.46666 386.639 6V18.8ZM424.336 36V-1.43051e-06H428.436V15.95L440.036 15.95L453.436 -1.43051e-06L458.636 -1.43051e-06V0.0499979L443.586 18L458.686 35.95V36H453.436L440.036 20.05H428.436V36H424.336ZM464.23 36V-1.43051e-06L497.08 -1.43051e-06V4.05L468.28 4.05V15.95L491.43 15.95V20.05H468.28V31.95H497.08V36H464.23ZM502.411 36V-1.43051e-06H507.961L534.361 31.4V-1.43051e-06H538.411V36H532.861L506.461 4.6V36L502.411 36Z" fill="#5A4B6D"/>
</svg>
