<svg width="578" height="37" viewBox="0 0 578 37" fill="none" xmlns="http://www.w3.org/2000/svg">
<path d="M13.85 37L0.75 0.999999L5.05 0.999999L15.6 29.9L26.1 0.999999L31 0.999999L41.55 29.9L52 0.999999H56.4L43.3 37H39.75L28.55 6.25L17.35 37H13.85ZM60.8355 37L60.8355 0.999999L93.6855 0.999999V5.05L64.8855 5.05V16.95L88.0355 16.95V21.05L64.8855 21.05L64.8855 32.95L93.6855 32.95V37L60.8355 37ZM99.0668 37L99.0668 0.949999H103.117L103.117 32.95L135.067 32.95V37L99.0668 37ZM143.982 37C142.882 37 141.865 36.7333 140.932 36.2C140.032 35.6667 139.315 34.95 138.782 34.05C138.248 33.1167 137.982 32.1 137.982 31V7C137.982 5.9 138.248 4.9 138.782 4C139.315 3.06667 140.032 2.33333 140.932 1.8C141.865 1.26666 142.882 0.999999 143.982 0.999999L173.882 0.999999V5.05L143.982 5.05C143.448 5.05 142.982 5.25 142.582 5.65C142.215 6.01666 142.032 6.46666 142.032 7V31C142.032 31.5333 142.215 32 142.582 32.4C142.982 32.7667 143.448 32.95 143.982 32.95L173.882 32.95V37L143.982 37ZM184.995 37C183.895 37 182.878 36.7333 181.945 36.2C181.045 35.6667 180.328 34.95 179.795 34.05C179.262 33.1167 178.995 32.1 178.995 31V7C178.995 5.9 179.262 4.9 179.795 4C180.328 3.06667 181.045 2.33333 181.945 1.8C182.878 1.26666 183.895 0.999999 184.995 0.999999L208.995 0.999999C210.095 0.999999 211.095 1.26666 211.995 1.8C212.928 2.33333 213.662 3.06667 214.195 4C214.728 4.9 214.995 5.9 214.995 7V31C214.995 32.1 214.728 33.1167 214.195 34.05C213.662 34.95 212.928 35.6667 211.995 36.2C211.095 36.7333 210.095 37 208.995 37L184.995 37ZM184.995 32.95L208.995 32.95C209.528 32.95 209.978 32.7667 210.345 32.4C210.745 32 210.945 31.5333 210.945 31V7C210.945 6.46666 210.745 6.01666 210.345 5.65C209.978 5.25 209.528 5.05 208.995 5.05L184.995 5.05C184.462 5.05 183.995 5.25 183.595 5.65C183.228 6.01666 183.045 6.46666 183.045 7V31C183.045 31.5333 183.228 32 183.595 32.4C183.995 32.7667 184.462 32.95 184.995 32.95ZM220.501 37V0.999999L226.051 0.999999L241.001 18.8L255.951 0.999999L261.501 0.999999V37H257.451V5.6L241.001 25.15L224.551 5.6V37H220.501ZM266.988 37V0.999999L299.838 0.999999V5.05L271.038 5.05V16.95L294.188 16.95V21.05L271.038 21.05V32.95L299.838 32.95V37L266.988 37ZM332.992 37V5.05L316.992 5.05V0.999999L352.992 0.999999V5.05L337.042 5.05V37H332.992ZM362.632 37C361.532 37 360.515 36.7333 359.582 36.2C358.682 35.6667 357.965 34.95 357.432 34.05C356.898 33.1167 356.632 32.1 356.632 31V7C356.632 5.9 356.898 4.9 357.432 4C357.965 3.06667 358.682 2.33333 359.582 1.8C360.515 1.26666 361.532 0.999999 362.632 0.999999L386.632 0.999999C387.732 0.999999 388.732 1.26666 389.632 1.8C390.565 2.33333 391.298 3.06667 391.832 4C392.365 4.9 392.632 5.9 392.632 7V31C392.632 32.1 392.365 33.1167 391.832 34.05C391.298 34.95 390.565 35.6667 389.632 36.2C388.732 36.7333 387.732 37 386.632 37L362.632 37ZM362.632 32.95L386.632 32.95C387.165 32.95 387.615 32.7667 387.982 32.4C388.382 32 388.582 31.5333 388.582 31V7C388.582 6.46666 388.382 6.01666 387.982 5.65C387.615 5.25 387.165 5.05 386.632 5.05L362.632 5.05C362.098 5.05 361.632 5.25 361.232 5.65C360.865 6.01666 360.682 6.46666 360.682 7V31C360.682 31.5333 360.865 32 361.232 32.4C361.632 32.7667 362.098 32.95 362.632 32.95ZM411.761 37V0.999999L417.311 0.999999L443.711 32.4V0.999999L447.761 0.999999V37H442.211L415.811 5.6V37H411.761ZM459.263 37C458.163 37 457.146 36.7333 456.213 36.2C455.313 35.6667 454.596 34.95 454.063 34.05C453.529 33.1167 453.263 32.1 453.263 31V7C453.263 5.9 453.529 4.9 454.063 4C454.596 3.06667 455.313 2.33333 456.213 1.8C457.146 1.26666 458.163 0.999999 459.263 0.999999L483.263 0.999999C484.363 0.999999 485.363 1.26666 486.263 1.8C487.196 2.33333 487.929 3.06667 488.463 4C488.996 4.9 489.263 5.9 489.263 7V31C489.263 32.1 488.996 33.1167 488.463 34.05C487.929 34.95 487.196 35.6667 486.263 36.2C485.363 36.7333 484.363 37 483.263 37L459.263 37ZM459.263 32.95L483.263 32.95C483.796 32.95 484.246 32.7667 484.613 32.4C485.013 32 485.213 31.5333 485.213 31V7C485.213 6.46666 485.013 6.01666 484.613 5.65C484.246 5.25 483.796 5.05 483.263 5.05L459.263 5.05C458.729 5.05 458.263 5.25 457.863 5.65C457.496 6.01666 457.313 6.46666 457.313 7V31C457.313 31.5333 457.496 32 457.863 32.4C458.263 32.7667 458.729 32.95 459.263 32.95ZM494.769 37V0.999999H500.319L515.269 18.8L530.219 0.999999L535.769 0.999999V37H531.719V5.6L515.269 25.15L498.819 5.6V37H494.769ZM547.055 37C545.955 37 544.939 36.7333 544.005 36.2C543.105 35.6667 542.389 34.95 541.855 34.05C541.322 33.1167 541.055 32.1 541.055 31V7C541.055 5.9 541.322 4.9 541.855 4C542.389 3.06667 543.105 2.33333 544.005 1.8C544.939 1.26666 545.955 0.999999 547.055 0.999999L571.055 0.999999C572.155 0.999999 573.155 1.26666 574.055 1.8C574.989 2.33333 575.722 3.06667 576.255 4C576.789 4.9 577.055 5.9 577.055 7V31C577.055 32.1 576.789 33.1167 576.255 34.05C575.722 34.95 574.989 35.6667 574.055 36.2C573.155 36.7333 572.155 37 571.055 37L547.055 37ZM547.055 32.95L571.055 32.95C571.589 32.95 572.039 32.7667 572.405 32.4C572.805 32 573.005 31.5333 573.005 31V7C573.005 6.46666 572.805 6.01666 572.405 5.65C572.039 5.25 571.589 5.05 571.055 5.05L547.055 5.05C546.522 5.05 546.055 5.25 545.655 5.65C545.289 6.01666 545.105 6.46666 545.105 7V31C545.105 31.5333 545.289 32 545.655 32.4C546.055 32.7667 546.522 32.95 547.055 32.95Z" fill="#5A4B6D"/>
</svg>
