<svg width="124" height="15" viewBox="0 0 124 15" fill="none" xmlns="http://www.w3.org/2000/svg">
<path d="M0.12 15V0.599999H2.34L12.9 13.16V0.599999H14.52V15H12.3L1.74 2.44V15H0.12ZM16.8006 15V0.599999H29.9406V2.22H18.4206V6.98H27.6806V8.62H18.4206V13.38H29.9406V15H16.8006ZM36.8931 15L31.6531 0.599999H33.3731L37.5931 12.16L41.7931 0.599999H43.7531L47.9731 12.16L52.1531 0.599999H53.9131L48.6731 15H47.2531L42.7731 2.7L38.2931 15H36.8931ZM63.4566 15C63.0166 15 62.6099 14.8933 62.2366 14.68C61.8766 14.4667 61.5899 14.18 61.3766 13.82C61.1632 13.4467 61.0566 13.04 61.0566 12.6V0.599999H62.6766V12.6C62.6766 12.8133 62.7499 13 62.8966 13.16C63.0566 13.3067 63.2432 13.38 63.4566 13.38H73.0566C73.2699 13.38 73.4499 13.3067 73.5966 13.16C73.7566 13 73.8366 12.8133 73.8366 12.6V0.599999H75.4566V12.6C75.4566 13.04 75.3499 13.4467 75.1366 13.82C74.9232 14.18 74.6299 14.4667 74.2566 14.68C73.8966 14.8933 73.4966 15 73.0566 15H63.4566ZM79.9591 15C79.5191 15 79.1124 14.8933 78.7391 14.68C78.3791 14.4667 78.0924 14.18 77.8791 13.82C77.6657 13.4467 77.5591 13.04 77.5591 12.6V12.04H79.1791V12.6C79.1791 12.8133 79.2524 13 79.3991 13.16C79.5591 13.3067 79.7457 13.38 79.9591 13.38H89.5591C89.7724 13.38 89.9524 13.3067 90.0991 13.16C90.2591 13 90.3391 12.8133 90.3391 12.6V9.38C90.3391 9.16667 90.2591 8.98667 90.0991 8.84C89.9524 8.69333 89.7724 8.62 89.5591 8.62H79.9591C79.5191 8.62 79.1124 8.51333 78.7391 8.3C78.3791 8.07333 78.0924 7.78 77.8791 7.42C77.6657 7.06 77.5591 6.66 77.5591 6.22V3C77.5591 2.56 77.6657 2.16 77.8791 1.8C78.0924 1.42667 78.3791 1.13333 78.7391 0.919999C79.1124 0.706666 79.5191 0.599999 79.9591 0.599999H89.5591C89.9991 0.599999 90.3991 0.706666 90.7591 0.919999C91.1324 1.13333 91.4257 1.42667 91.6391 1.8C91.8524 2.16 91.9591 2.56 91.9591 3V3.56H90.3391V3C90.3391 2.78667 90.2591 2.60667 90.0991 2.46C89.9524 2.3 89.7724 2.22 89.5591 2.22H79.9591C79.7457 2.22 79.5591 2.3 79.3991 2.46C79.2524 2.60667 79.1791 2.78667 79.1791 3V6.22C79.1791 6.43333 79.2524 6.61333 79.3991 6.76C79.5591 6.90667 79.7457 6.98 79.9591 6.98H89.5591C89.9991 6.98 90.3991 7.09333 90.7591 7.32C91.1324 7.53333 91.4257 7.82 91.6391 8.18C91.8524 8.54 91.9591 8.94 91.9591 9.38V12.6C91.9591 13.04 91.8524 13.4467 91.6391 13.82C91.4257 14.18 91.1324 14.4667 90.7591 14.68C90.3991 14.8933 89.9991 15 89.5591 15H79.9591ZM94.1444 15V0.599999H107.284V2.22H95.7644V6.98H105.024V8.62H95.7644V13.38H107.284V15H94.1444ZM121.577 15L116.877 9.4H118.997L123.717 14.98V15H121.577ZM109.417 15V0.619999H121.417C121.857 0.619999 122.257 0.733333 122.617 0.96C122.99 1.17333 123.284 1.46 123.497 1.82C123.71 2.18 123.817 2.58 123.817 3.02V7.24C123.817 7.68 123.71 8.08 123.497 8.44C123.284 8.8 122.99 9.09333 122.617 9.32C122.257 9.53333 121.857 9.64 121.417 9.64H111.037V15H109.417ZM111.817 8H121.417C121.63 8 121.81 7.92667 121.957 7.78C122.117 7.63333 122.197 7.45333 122.197 7.24V3.02C122.197 2.80667 122.117 2.62667 121.957 2.48C121.81 2.32 121.63 2.24 121.417 2.24H111.817C111.604 2.24 111.417 2.32 111.257 2.48C111.11 2.62667 111.037 2.80667 111.037 3.02V7.24C111.037 7.45333 111.11 7.63333 111.257 7.78C111.417 7.92667 111.604 8 111.817 8Z" fill="white"/>
</svg>
