<svg width="163" height="18" viewBox="0 0 163 18" fill="none" xmlns="http://www.w3.org/2000/svg">
<path d="M3.35 18C2.8 18 2.29167 17.8667 1.825 17.6C1.375 17.3333 1.01667 16.975 0.75 16.525C0.483333 16.0583 0.35 15.55 0.35 15V-7.15256e-07H2.375V15C2.375 15.2667 2.46667 15.5 2.65 15.7C2.85 15.8833 3.08333 15.975 3.35 15.975H15.35C15.6167 15.975 15.8417 15.8833 16.025 15.7C16.225 15.5 16.325 15.2667 16.325 15V-7.15256e-07H18.35V15C18.35 15.55 18.2167 16.0583 17.95 16.525C17.6833 16.975 17.3167 17.3333 16.85 17.6C16.4 17.8667 15.9 18 15.35 18H3.35ZM23.9781 18C23.4281 18 22.9198 17.8667 22.4531 17.6C22.0031 17.3333 21.6448 16.975 21.3781 16.525C21.1115 16.0583 20.9781 15.55 20.9781 15V14.3H23.0031V15C23.0031 15.2667 23.0948 15.5 23.2781 15.7C23.4781 15.8833 23.7115 15.975 23.9781 15.975H35.9781C36.2448 15.975 36.4698 15.8833 36.6531 15.7C36.8531 15.5 36.9531 15.2667 36.9531 15V10.975C36.9531 10.7083 36.8531 10.4833 36.6531 10.3C36.4698 10.1167 36.2448 10.025 35.9781 10.025H23.9781C23.4281 10.025 22.9198 9.89167 22.4531 9.625C22.0031 9.34167 21.6448 8.975 21.3781 8.525C21.1115 8.075 20.9781 7.575 20.9781 7.025V3C20.9781 2.45 21.1115 1.95 21.3781 1.5C21.6448 1.03333 22.0031 0.666666 22.4531 0.399999C22.9198 0.133332 23.4281 -7.15256e-07 23.9781 -7.15256e-07H35.9781C36.5281 -7.15256e-07 37.0281 0.133332 37.4781 0.399999C37.9448 0.666666 38.3115 1.03333 38.5781 1.5C38.8448 1.95 38.9781 2.45 38.9781 3V3.7H36.9531V3C36.9531 2.73333 36.8531 2.50833 36.6531 2.325C36.4698 2.125 36.2448 2.025 35.9781 2.025H23.9781C23.7115 2.025 23.4781 2.125 23.2781 2.325C23.0948 2.50833 23.0031 2.73333 23.0031 3V7.025C23.0031 7.29167 23.0948 7.51667 23.2781 7.7C23.4781 7.88333 23.7115 7.975 23.9781 7.975H35.9781C36.5281 7.975 37.0281 8.11667 37.4781 8.4C37.9448 8.66667 38.3115 9.025 38.5781 9.475C38.8448 9.925 38.9781 10.425 38.9781 10.975V15C38.9781 15.55 38.8448 16.0583 38.5781 16.525C38.3115 16.975 37.9448 17.3333 37.4781 17.6C37.0281 17.8667 36.5281 18 35.9781 18H23.9781ZM41.7098 18V-7.15256e-07H58.1348V2.025H43.7348V7.975H55.3098V10.025H43.7348V15.975H58.1348V18H41.7098ZM76.0004 18L70.1254 11H72.7754L78.6754 17.975V18H76.0004ZM60.8004 18V0.024999H75.8004C76.3504 0.024999 76.8504 0.166666 77.3004 0.449999C77.7671 0.716666 78.1337 1.075 78.4004 1.525C78.6671 1.975 78.8004 2.475 78.8004 3.025V8.3C78.8004 8.85 78.6671 9.35 78.4004 9.8C78.1337 10.25 77.7671 10.6167 77.3004 10.9C76.8504 11.1667 76.3504 11.3 75.8004 11.3H62.8254V18H60.8004ZM63.8004 9.25H75.8004C76.0671 9.25 76.2921 9.15833 76.4754 8.975C76.6754 8.79167 76.7754 8.56667 76.7754 8.3V3.025C76.7754 2.75833 76.6754 2.53333 76.4754 2.35C76.2921 2.15 76.0671 2.05 75.8004 2.05H63.8004C63.5337 2.05 63.3004 2.15 63.1004 2.35C62.9171 2.53333 62.8254 2.75833 62.8254 3.025V8.3C62.8254 8.56667 62.9171 8.79167 63.1004 8.975C63.3004 9.15833 63.5337 9.25 63.8004 9.25ZM81.4303 18V-7.15256e-07H84.2053L97.4053 15.7V-7.15256e-07H99.4303V18H96.6553L83.4553 2.3V18H81.4303ZM102.281 18V3C102.281 2.45 102.414 1.95 102.681 1.5C102.948 1.03333 103.306 0.666666 103.756 0.399999C104.223 0.133332 104.731 -7.15256e-07 105.281 -7.15256e-07H117.281C117.831 -7.15256e-07 118.331 0.133332 118.781 0.399999C119.248 0.666666 119.614 1.03333 119.881 1.5C120.148 1.95 120.281 2.45 120.281 3V18H118.256V11.425H104.306V18H102.281ZM104.306 9.4H118.256V3C118.256 2.73333 118.156 2.50833 117.956 2.325C117.773 2.125 117.548 2.025 117.281 2.025H105.281C105.014 2.025 104.781 2.125 104.581 2.325C104.398 2.50833 104.306 2.73333 104.306 3V9.4ZM123.129 18V-7.15256e-07H125.904L133.379 8.9L140.854 -7.15256e-07H143.629V18H141.604V2.3L133.379 12.075L125.154 2.3V18H123.129ZM146.373 18V-7.15256e-07H162.798V2.025H148.398V7.975H159.973V10.025H148.398V15.975H162.798V18H146.373Z" fill="#7E7D7D"/>
</svg>
