<svg width="171" height="18" viewBox="0 0 171 18" fill="none" xmlns="http://www.w3.org/2000/svg">
<path d="M0.4 18V0.024999H15.4C15.95 0.024999 16.45 0.166666 16.9 0.449999C17.3667 0.716666 17.7333 1.075 18 1.525C18.2667 1.975 18.4 2.475 18.4 3.025V8.3C18.4 8.85 18.2667 9.35 18 9.8C17.7333 10.25 17.3667 10.6167 16.9 10.9C16.45 11.1667 15.95 11.3 15.4 11.3H2.425V18H0.4ZM3.4 9.25H15.4C15.6667 9.25 15.8917 9.15833 16.075 8.975C16.275 8.79167 16.375 8.56667 16.375 8.3V3.025C16.375 2.75833 16.275 2.53333 16.075 2.35C15.8917 2.15 15.6667 2.05 15.4 2.05H3.4C3.13333 2.05 2.9 2.15 2.7 2.35C2.51667 2.53333 2.425 2.75833 2.425 3.025V8.3C2.425 8.56667 2.51667 8.79167 2.7 8.975C2.9 9.15833 3.13333 9.25 3.4 9.25ZM20.4695 18V3C20.4695 2.45 20.6029 1.95 20.8695 1.5C21.1362 1.03333 21.4945 0.666666 21.9445 0.399999C22.4112 0.133332 22.9195 -7.15256e-07 23.4695 -7.15256e-07H35.4695C36.0195 -7.15256e-07 36.5195 0.133332 36.9695 0.399999C37.4362 0.666666 37.8029 1.03333 38.0695 1.5C38.3362 1.95 38.4695 2.45 38.4695 3V18H36.4445V11.425H22.4945V18H20.4695ZM22.4945 9.4H36.4445V3C36.4445 2.73333 36.3445 2.50833 36.1445 2.325C35.9612 2.125 35.7362 2.025 35.4695 2.025H23.4695C23.2029 2.025 22.9695 2.125 22.7695 2.325C22.5862 2.50833 22.4945 2.73333 22.4945 3V9.4ZM44.193 18C43.643 18 43.1346 17.8667 42.668 17.6C42.218 17.3333 41.8596 16.975 41.593 16.525C41.3263 16.0583 41.193 15.55 41.193 15V14.3H43.218V15C43.218 15.2667 43.3096 15.5 43.493 15.7C43.693 15.8833 43.9263 15.975 44.193 15.975H56.193C56.4596 15.975 56.6846 15.8833 56.868 15.7C57.068 15.5 57.168 15.2667 57.168 15V10.975C57.168 10.7083 57.068 10.4833 56.868 10.3C56.6846 10.1167 56.4596 10.025 56.193 10.025H44.193C43.643 10.025 43.1346 9.89167 42.668 9.625C42.218 9.34167 41.8596 8.975 41.593 8.525C41.3263 8.075 41.193 7.575 41.193 7.025V3C41.193 2.45 41.3263 1.95 41.593 1.5C41.8596 1.03333 42.218 0.666666 42.668 0.399999C43.1346 0.133332 43.643 -7.15256e-07 44.193 -7.15256e-07H56.193C56.743 -7.15256e-07 57.243 0.133332 57.693 0.399999C58.1596 0.666666 58.5263 1.03333 58.793 1.5C59.0596 1.95 59.193 2.45 59.193 3V3.7H57.168V3C57.168 2.73333 57.068 2.50833 56.868 2.325C56.6846 2.125 56.4596 2.025 56.193 2.025H44.193C43.9263 2.025 43.693 2.125 43.493 2.325C43.3096 2.50833 43.218 2.73333 43.218 3V7.025C43.218 7.29167 43.3096 7.51667 43.493 7.7C43.693 7.88333 43.9263 7.975 44.193 7.975H56.193C56.743 7.975 57.243 8.11667 57.693 8.4C58.1596 8.66667 58.5263 9.025 58.793 9.475C59.0596 9.925 59.193 10.425 59.193 10.975V15C59.193 15.55 59.0596 16.0583 58.793 16.525C58.5263 16.975 58.1596 17.3333 57.693 17.6C57.243 17.8667 56.743 18 56.193 18H44.193ZM64.7496 18C64.1996 18 63.6913 17.8667 63.2246 17.6C62.7746 17.3333 62.4163 16.975 62.1496 16.525C61.8829 16.0583 61.7496 15.55 61.7496 15V14.3H63.7746V15C63.7746 15.2667 63.8663 15.5 64.0496 15.7C64.2496 15.8833 64.4829 15.975 64.7496 15.975H76.7496C77.0163 15.975 77.2413 15.8833 77.4246 15.7C77.6246 15.5 77.7246 15.2667 77.7246 15V10.975C77.7246 10.7083 77.6246 10.4833 77.4246 10.3C77.2413 10.1167 77.0163 10.025 76.7496 10.025H64.7496C64.1996 10.025 63.6913 9.89167 63.2246 9.625C62.7746 9.34167 62.4163 8.975 62.1496 8.525C61.8829 8.075 61.7496 7.575 61.7496 7.025V3C61.7496 2.45 61.8829 1.95 62.1496 1.5C62.4163 1.03333 62.7746 0.666666 63.2246 0.399999C63.6913 0.133332 64.1996 -7.15256e-07 64.7496 -7.15256e-07H76.7496C77.2996 -7.15256e-07 77.7996 0.133332 78.2496 0.399999C78.7163 0.666666 79.0829 1.03333 79.3496 1.5C79.6163 1.95 79.7496 2.45 79.7496 3V3.7H77.7246V3C77.7246 2.73333 77.6246 2.50833 77.4246 2.325C77.2413 2.125 77.0163 2.025 76.7496 2.025H64.7496C64.4829 2.025 64.2496 2.125 64.0496 2.325C63.8663 2.50833 63.7746 2.73333 63.7746 3V7.025C63.7746 7.29167 63.8663 7.51667 64.0496 7.7C64.2496 7.88333 64.4829 7.975 64.7496 7.975H76.7496C77.2996 7.975 77.7996 8.11667 78.2496 8.4C78.7163 8.66667 79.0829 9.025 79.3496 9.475C79.6163 9.925 79.7496 10.425 79.7496 10.975V15C79.7496 15.55 79.6163 16.0583 79.3496 16.525C79.0829 16.975 78.7163 17.3333 78.2496 17.6C77.7996 17.8667 77.2996 18 76.7496 18H64.7496ZM87.8215 18L81.2715 -7.15256e-07H83.4215L88.6965 14.45L93.9465 -7.15256e-07H96.3965L101.671 14.45L106.896 -7.15256e-07H109.096L102.546 18H100.771L95.1715 2.625L89.5715 18H87.8215ZM113.628 18C113.078 18 112.57 17.8667 112.103 17.6C111.653 17.3333 111.295 16.975 111.028 16.525C110.762 16.0583 110.628 15.55 110.628 15V3C110.628 2.45 110.762 1.95 111.028 1.5C111.295 1.03333 111.653 0.666666 112.103 0.399999C112.57 0.133332 113.078 -7.15256e-07 113.628 -7.15256e-07H125.628C126.178 -7.15256e-07 126.678 0.133332 127.128 0.399999C127.595 0.666666 127.962 1.03333 128.228 1.5C128.495 1.95 128.628 2.45 128.628 3V15C128.628 15.55 128.495 16.0583 128.228 16.525C127.962 16.975 127.595 17.3333 127.128 17.6C126.678 17.8667 126.178 18 125.628 18H113.628ZM113.628 15.975H125.628C125.895 15.975 126.12 15.8833 126.303 15.7C126.503 15.5 126.603 15.2667 126.603 15V3C126.603 2.73333 126.503 2.50833 126.303 2.325C126.12 2.125 125.895 2.025 125.628 2.025H113.628C113.362 2.025 113.128 2.125 112.928 2.325C112.745 2.50833 112.653 2.73333 112.653 3V15C112.653 15.2667 112.745 15.5 112.928 15.7C113.128 15.8833 113.362 15.975 113.628 15.975ZM146.581 18L140.706 11H143.356L149.256 17.975V18H146.581ZM131.381 18V0.024999H146.381C146.931 0.024999 147.431 0.166666 147.881 0.449999C148.348 0.716666 148.715 1.075 148.981 1.525C149.248 1.975 149.381 2.475 149.381 3.025V8.3C149.381 8.85 149.248 9.35 148.981 9.8C148.715 10.25 148.348 10.6167 147.881 10.9C147.431 11.1667 146.931 11.3 146.381 11.3H133.406V18H131.381ZM134.381 9.25H146.381C146.648 9.25 146.873 9.15833 147.056 8.975C147.256 8.79167 147.356 8.56667 147.356 8.3V3.025C147.356 2.75833 147.256 2.53333 147.056 2.35C146.873 2.15 146.648 2.05 146.381 2.05H134.381C134.115 2.05 133.881 2.15 133.681 2.35C133.498 2.53333 133.406 2.75833 133.406 3.025V8.3C133.406 8.56667 133.498 8.79167 133.681 8.975C133.881 9.15833 134.115 9.25 134.381 9.25ZM152.061 18V-7.15256e-07H167.061C167.611 -7.15256e-07 168.111 0.133332 168.561 0.399999C169.028 0.666666 169.395 1.03333 169.661 1.5C169.928 1.95 170.061 2.45 170.061 3V15C170.061 15.55 169.928 16.0583 169.661 16.525C169.395 16.975 169.028 17.3333 168.561 17.6C168.111 17.8667 167.611 18 167.061 18H152.061ZM155.061 15.975H167.061C167.328 15.975 167.553 15.8833 167.736 15.7C167.936 15.5 168.036 15.2667 168.036 15V3C168.036 2.73333 167.936 2.50833 167.736 2.325C167.553 2.125 167.328 2.025 167.061 2.025H155.061C154.795 2.025 154.561 2.125 154.361 2.325C154.178 2.50833 154.086 2.73333 154.086 3V15C154.086 15.2667 154.178 15.5 154.361 15.7C154.561 15.8833 154.795 15.975 155.061 15.975Z" fill="#7E7D7D"/>
</svg>
