<svg width="497" height="108" viewBox="0 0 497 108" fill="none" xmlns="http://www.w3.org/2000/svg">
<path d="M0.198828 108V-4.29153e-06H16.8488L96.0488 94.2V-4.29153e-06H108.199V108H91.5488L12.3488 13.8V108H0.198828ZM142.704 108C139.404 108 136.354 107.2 133.554 105.6C130.854 104 128.704 101.85 127.104 99.15C125.504 96.35 124.704 93.3 124.704 90V18C124.704 14.7 125.504 11.7 127.104 9C128.704 6.2 130.854 3.99999 133.554 2.39999C136.354 0.799994 139.404 -4.29153e-06 142.704 -4.29153e-06H214.704C218.004 -4.29153e-06 221.004 0.799994 223.704 2.39999C226.504 3.99999 228.704 6.2 230.304 9C231.904 11.7 232.704 14.7 232.704 18V90C232.704 93.3 231.904 96.35 230.304 99.15C228.704 101.85 226.504 104 223.704 105.6C221.004 107.2 218.004 108 214.704 108H142.704ZM142.704 95.85H214.704C216.304 95.85 217.654 95.3 218.754 94.2C219.954 93 220.554 91.6 220.554 90V18C220.554 16.4 219.954 15.05 218.754 13.95C217.654 12.75 216.304 12.15 214.704 12.15H142.704C141.104 12.15 139.704 12.75 138.504 13.95C137.404 15.05 136.854 16.4 136.854 18V90C136.854 91.6 137.404 93 138.504 94.2C139.704 95.3 141.104 95.85 142.704 95.85ZM249.222 108V-4.29153e-06H265.872L310.722 53.4L355.572 -4.29153e-06H372.222V108H360.072V13.8L310.722 72.45L261.372 13.8V108H249.222ZM406.082 108C402.782 108 399.732 107.2 396.932 105.6C394.232 104 392.082 101.85 390.482 99.15C388.882 96.35 388.082 93.3 388.082 90V18C388.082 14.7 388.882 11.7 390.482 9C392.082 6.2 394.232 3.99999 396.932 2.39999C399.732 0.799994 402.782 -4.29153e-06 406.082 -4.29153e-06H478.082C481.382 -4.29153e-06 484.382 0.799994 487.082 2.39999C489.882 3.99999 492.082 6.2 493.682 9C495.282 11.7 496.082 14.7 496.082 18V90C496.082 93.3 495.282 96.35 493.682 99.15C492.082 101.85 489.882 104 487.082 105.6C484.382 107.2 481.382 108 478.082 108H406.082ZM406.082 95.85H478.082C479.682 95.85 481.032 95.3 482.132 94.2C483.332 93 483.932 91.6 483.932 90V18C483.932 16.4 483.332 15.05 482.132 13.95C481.032 12.75 479.682 12.15 478.082 12.15H406.082C404.482 12.15 403.082 12.75 401.882 13.95C400.782 15.05 400.232 16.4 400.232 18V90C400.232 91.6 400.782 93 401.882 94.2C403.082 95.3 404.482 95.85 406.082 95.85Z" fill="#632AAC"/>
</svg>
