<svg width="649" height="24" viewBox="0 0 649 24" fill="none" xmlns="http://www.w3.org/2000/svg">
<path d="M0.61793 24V2.4H20.3279V4.83H3.04793V11.97H16.9379V14.43H3.04793V24H0.61793ZM22.5376 24V2.4H24.9976V24H22.5376ZM28.5936 24V6.6H42.6936C43.3536 6.6 43.9536 6.77 44.4936 7.11C45.0536 7.43 45.4936 7.87 45.8136 8.43C46.1536 8.97 46.3236 9.57 46.3236 10.23V24H43.8636V10.23C43.8636 9.91 43.7436 9.64 43.5036 9.42C43.2836 9.18 43.0136 9.06 42.6936 9.06H32.2536C31.9336 9.06 31.6536 9.18 31.4136 9.42C31.1736 9.64 31.0536 9.91 31.0536 10.23V24H28.5936ZM52.2123 24C51.5323 24 50.9123 23.84 50.3523 23.52C49.8123 23.18 49.3723 22.74 49.0323 22.2C48.7123 21.64 48.5523 21.03 48.5523 20.37V10.23C48.5523 9.57 48.7123 8.97 49.0323 8.43C49.3723 7.87 49.8123 7.43 50.3523 7.11C50.9123 6.77 51.5323 6.6 52.2123 6.6H63.8223V0.899999H66.2823V24H52.2123ZM52.2123 21.54H62.6523C62.9723 21.54 63.2423 21.43 63.4623 21.21C63.7023 20.97 63.8223 20.69 63.8223 20.37V10.23C63.8223 9.91 63.7023 9.64 63.4623 9.42C63.2423 9.18 62.9723 9.06 62.6523 9.06H52.2123C51.8923 9.06 51.6123 9.18 51.3723 9.42C51.1523 9.64 51.0423 9.91 51.0423 10.23V20.37C51.0423 20.69 51.1523 20.97 51.3723 21.21C51.6123 21.43 51.8923 21.54 52.2123 21.54ZM81.1759 24C80.5159 24 79.9059 23.84 79.3459 23.52C78.8059 23.2 78.3759 22.77 78.0559 22.23C77.7359 21.67 77.5759 21.06 77.5759 20.4V19.56H80.0059V20.4C80.0059 20.72 80.1159 21 80.3359 21.24C80.5759 21.46 80.8559 21.57 81.1759 21.57H95.5759C95.8959 21.57 96.1659 21.46 96.3859 21.24C96.6259 21 96.7459 20.72 96.7459 20.4V15.57C96.7459 15.25 96.6259 14.98 96.3859 14.76C96.1659 14.54 95.8959 14.43 95.5759 14.43H81.1759C80.5159 14.43 79.9059 14.27 79.3459 13.95C78.8059 13.61 78.3759 13.17 78.0559 12.63C77.7359 12.09 77.5759 11.49 77.5759 10.83V6C77.5759 5.34 77.7359 4.74 78.0559 4.2C78.3759 3.64 78.8059 3.2 79.3459 2.88C79.9059 2.56 80.5159 2.4 81.1759 2.4H95.5759C96.2359 2.4 96.8359 2.56 97.3759 2.88C97.9359 3.2 98.3759 3.64 98.6959 4.2C99.0159 4.74 99.1759 5.34 99.1759 6V6.84H96.7459V6C96.7459 5.68 96.6259 5.41 96.3859 5.19C96.1659 4.95 95.8959 4.83 95.5759 4.83H81.1759C80.8559 4.83 80.5759 4.95 80.3359 5.19C80.1159 5.41 80.0059 5.68 80.0059 6V10.83C80.0059 11.15 80.1159 11.42 80.3359 11.64C80.5759 11.86 80.8559 11.97 81.1759 11.97H95.5759C96.2359 11.97 96.8359 12.14 97.3759 12.48C97.9359 12.8 98.3759 13.23 98.6959 13.77C99.0159 14.31 99.1759 14.91 99.1759 15.57V20.4C99.1759 21.06 99.0159 21.67 98.6959 22.23C98.3759 22.77 97.9359 23.2 97.3759 23.52C96.8359 23.84 96.2359 24 95.5759 24H81.1759ZM105.874 24C105.214 24 104.604 23.84 104.044 23.52C103.504 23.18 103.064 22.74 102.724 22.2C102.404 21.64 102.244 21.03 102.244 20.37V10.23C102.244 9.57 102.404 8.97 102.724 8.43C103.064 7.87 103.504 7.43 104.044 7.11C104.604 6.77 105.214 6.6 105.874 6.6H116.314C116.994 6.6 117.604 6.77 118.144 7.11C118.704 7.43 119.144 7.87 119.464 8.43C119.804 8.97 119.974 9.57 119.974 10.23V20.37C119.974 21.03 119.804 21.64 119.464 22.2C119.144 22.74 118.704 23.18 118.144 23.52C117.604 23.84 116.994 24 116.314 24H105.874ZM105.874 21.54H116.314C116.634 21.54 116.904 21.43 117.124 21.21C117.364 20.97 117.484 20.69 117.484 20.37V10.23C117.484 9.91 117.364 9.64 117.124 9.42C116.904 9.18 116.634 9.06 116.314 9.06H105.874C105.554 9.06 105.274 9.18 105.034 9.42C104.814 9.64 104.704 9.91 104.704 10.23V20.37C104.704 20.69 104.814 20.97 105.034 21.21C105.274 21.43 105.554 21.54 105.874 21.54ZM123.105 24V6.6H146.085C146.765 6.6 147.375 6.77 147.915 7.11C148.475 7.43 148.915 7.87 149.235 8.43C149.555 8.97 149.715 9.57 149.715 10.23V24H147.285V10.23C147.285 9.91 147.165 9.64 146.925 9.42C146.685 9.18 146.405 9.06 146.085 9.06H138.855C138.535 9.06 138.255 9.18 138.015 9.42C137.795 9.64 137.685 9.91 137.685 10.23V24H135.195V10.23C135.195 9.91 135.075 9.64 134.835 9.42C134.615 9.18 134.345 9.06 134.025 9.06H126.765C126.445 9.06 126.165 9.18 125.925 9.42C125.705 9.64 125.595 9.91 125.595 10.23V24H123.105ZM155.972 24C155.312 24 154.702 23.84 154.142 23.52C153.602 23.18 153.162 22.74 152.822 22.2C152.502 21.64 152.342 21.03 152.342 20.37V10.23C152.342 9.57 152.502 8.97 152.822 8.43C153.162 7.87 153.602 7.43 154.142 7.11C154.702 6.77 155.312 6.6 155.972 6.6H166.412C167.092 6.6 167.702 6.77 168.242 7.11C168.802 7.43 169.242 7.87 169.562 8.43C169.902 8.97 170.072 9.57 170.072 10.23V16.53H154.802V20.37C154.802 20.69 154.912 20.97 155.132 21.21C155.372 21.43 155.652 21.54 155.972 21.54H170.072V24H155.972ZM154.802 14.07H167.582V10.23C167.582 9.91 167.462 9.64 167.222 9.42C167.002 9.18 166.732 9.06 166.412 9.06H155.972C155.652 9.06 155.372 9.18 155.132 9.42C154.912 9.64 154.802 9.91 154.802 10.23V14.07ZM176.743 24C176.083 24 175.473 23.84 174.913 23.52C174.373 23.18 173.933 22.74 173.593 22.2C173.273 21.64 173.113 21.03 173.113 20.37V10.23C173.113 9.57 173.273 8.97 173.593 8.43C173.933 7.87 174.373 7.43 174.913 7.11C175.473 6.77 176.083 6.6 176.743 6.6H187.183C187.863 6.6 188.473 6.77 189.013 7.11C189.573 7.43 190.013 7.87 190.333 8.43C190.673 8.97 190.843 9.57 190.843 10.23V20.37C190.843 21.03 190.673 21.64 190.333 22.2C190.013 22.74 189.573 23.18 189.013 23.52C188.473 23.84 187.863 24 187.183 24H176.743ZM176.743 21.54H187.183C187.503 21.54 187.773 21.43 187.993 21.21C188.233 20.97 188.353 20.69 188.353 20.37V10.23C188.353 9.91 188.233 9.64 187.993 9.42C187.773 9.18 187.503 9.06 187.183 9.06H176.743C176.423 9.06 176.143 9.18 175.903 9.42C175.683 9.64 175.573 9.91 175.573 10.23V20.37C175.573 20.69 175.683 20.97 175.903 21.21C176.143 21.43 176.423 21.54 176.743 21.54ZM193.535 24V6.6H207.635C208.295 6.6 208.895 6.77 209.435 7.11C209.995 7.43 210.435 7.87 210.755 8.43C211.095 8.97 211.265 9.57 211.265 10.23V24H208.805V10.23C208.805 9.91 208.685 9.64 208.445 9.42C208.225 9.18 207.955 9.06 207.635 9.06H197.195C196.875 9.06 196.595 9.18 196.355 9.42C196.115 9.64 195.995 9.91 195.995 10.23V24H193.535ZM217.964 24C217.304 24 216.694 23.84 216.134 23.52C215.594 23.18 215.154 22.74 214.814 22.2C214.494 21.64 214.334 21.03 214.334 20.37V10.23C214.334 9.57 214.494 8.97 214.814 8.43C215.154 7.87 215.594 7.43 216.134 7.11C216.694 6.77 217.304 6.6 217.964 6.6H228.404C229.084 6.6 229.694 6.77 230.234 7.11C230.794 7.43 231.234 7.87 231.554 8.43C231.894 8.97 232.064 9.57 232.064 10.23V16.53H216.794V20.37C216.794 20.69 216.904 20.97 217.124 21.21C217.364 21.43 217.644 21.54 217.964 21.54H232.064V24H217.964ZM216.794 14.07H229.574V10.23C229.574 9.91 229.454 9.64 229.214 9.42C228.994 9.18 228.724 9.06 228.404 9.06H217.964C217.644 9.06 217.364 9.18 217.124 9.42C216.904 9.64 216.794 9.91 216.794 10.23V14.07ZM252.639 24V15.87L242.709 2.4H245.499L253.869 12.96L262.149 2.4H264.999L255.069 15.87V24H252.639ZM267.505 24C266.845 24 266.235 23.84 265.675 23.52C265.135 23.18 264.695 22.74 264.355 22.2C264.035 21.64 263.875 21.03 263.875 20.37V10.23C263.875 9.57 264.035 8.97 264.355 8.43C264.695 7.87 265.135 7.43 265.675 7.11C266.235 6.77 266.845 6.6 267.505 6.6H277.945C278.625 6.6 279.235 6.77 279.775 7.11C280.335 7.43 280.775 7.87 281.095 8.43C281.435 8.97 281.605 9.57 281.605 10.23V20.37C281.605 21.03 281.435 21.64 281.095 22.2C280.775 22.74 280.335 23.18 279.775 23.52C279.235 23.84 278.625 24 277.945 24H267.505ZM267.505 21.54H277.945C278.265 21.54 278.535 21.43 278.755 21.21C278.995 20.97 279.115 20.69 279.115 20.37V10.23C279.115 9.91 278.995 9.64 278.755 9.42C278.535 9.18 278.265 9.06 277.945 9.06H267.505C267.185 9.06 266.905 9.18 266.665 9.42C266.445 9.64 266.335 9.91 266.335 10.23V20.37C266.335 20.69 266.445 20.97 266.665 21.21C266.905 21.43 267.185 21.54 267.505 21.54ZM287.633 24C286.973 24 286.363 23.84 285.803 23.52C285.263 23.18 284.823 22.74 284.483 22.2C284.163 21.64 284.003 21.03 284.003 20.37V6.6H286.463V20.37C286.463 20.69 286.573 20.97 286.793 21.21C287.033 21.43 287.313 21.54 287.633 21.54H298.073C298.393 21.54 298.673 21.43 298.913 21.21C299.153 20.97 299.273 20.69 299.273 20.37V6.6H301.733V20.37C301.733 21.03 301.563 21.64 301.223 22.2C300.903 22.74 300.463 23.18 299.903 23.52C299.363 23.84 298.753 24 298.073 24H287.633ZM320.356 24L312.496 2.4H315.076L321.406 19.74L327.706 2.4H330.646L336.976 19.74L343.246 2.4H345.886L338.026 24H335.896L329.176 5.55L322.456 24H320.356ZM351.206 24C350.546 24 349.936 23.84 349.376 23.52C348.836 23.18 348.396 22.74 348.056 22.2C347.736 21.64 347.576 21.03 347.576 20.37V10.23C347.576 9.57 347.736 8.97 348.056 8.43C348.396 7.87 348.836 7.43 349.376 7.11C349.936 6.77 350.546 6.6 351.206 6.6H361.646C362.326 6.6 362.936 6.77 363.476 7.11C364.036 7.43 364.476 7.87 364.796 8.43C365.136 8.97 365.306 9.57 365.306 10.23V20.37C365.306 21.03 365.136 21.64 364.796 22.2C364.476 22.74 364.036 23.18 363.476 23.52C362.936 23.84 362.326 24 361.646 24H351.206ZM351.206 21.54H361.646C361.966 21.54 362.236 21.43 362.456 21.21C362.696 20.97 362.816 20.69 362.816 20.37V10.23C362.816 9.91 362.696 9.64 362.456 9.42C362.236 9.18 361.966 9.06 361.646 9.06H351.206C350.886 9.06 350.606 9.18 350.366 9.42C350.146 9.64 350.036 9.91 350.036 10.23V20.37C350.036 20.69 350.146 20.97 350.366 21.21C350.606 21.43 350.886 21.54 351.206 21.54ZM371.334 24C370.674 24 370.064 23.84 369.504 23.52C368.964 23.18 368.524 22.74 368.184 22.2C367.864 21.64 367.704 21.03 367.704 20.37V6.6H370.164V20.37C370.164 20.69 370.274 20.97 370.494 21.21C370.734 21.43 371.014 21.54 371.334 21.54H381.774C382.094 21.54 382.374 21.43 382.614 21.21C382.854 20.97 382.974 20.69 382.974 20.37V6.6H385.434V20.37C385.434 21.03 385.264 21.64 384.924 22.2C384.604 22.74 384.164 23.18 383.604 23.52C383.064 23.84 382.454 24 381.774 24H371.334ZM392.164 24C391.504 24 390.894 23.84 390.334 23.52C389.794 23.18 389.354 22.74 389.014 22.2C388.694 21.64 388.534 21.03 388.534 20.37V0.899999H390.994V20.37C390.994 20.69 391.104 20.97 391.324 21.21C391.564 21.43 391.844 21.54 392.164 21.54H395.104V24H392.164ZM400.523 24C399.843 24 399.223 23.84 398.663 23.52C398.123 23.18 397.683 22.74 397.343 22.2C397.023 21.64 396.863 21.03 396.863 20.37V10.23C396.863 9.57 397.023 8.97 397.343 8.43C397.683 7.87 398.123 7.43 398.663 7.11C399.223 6.77 399.843 6.6 400.523 6.6H412.133V0.899999H414.593V24H400.523ZM400.523 21.54H410.963C411.283 21.54 411.553 21.43 411.773 21.21C412.013 20.97 412.133 20.69 412.133 20.37V10.23C412.133 9.91 412.013 9.64 411.773 9.42C411.553 9.18 411.283 9.06 410.963 9.06H400.523C400.203 9.06 399.923 9.18 399.683 9.42C399.463 9.64 399.353 9.91 399.353 10.23V20.37C399.353 20.69 399.463 20.97 399.683 21.21C399.923 21.43 400.203 21.54 400.523 21.54ZM426.066 24V2.37H428.496V21.57H447.666V24H426.066ZM452.895 24C452.235 24 451.625 23.84 451.065 23.52C450.525 23.18 450.085 22.74 449.745 22.2C449.425 21.64 449.265 21.03 449.265 20.37V10.23C449.265 9.57 449.425 8.97 449.745 8.43C450.085 7.87 450.525 7.43 451.065 7.11C451.625 6.77 452.235 6.6 452.895 6.6H463.335C464.015 6.6 464.625 6.77 465.165 7.11C465.725 7.43 466.165 7.87 466.485 8.43C466.825 8.97 466.995 9.57 466.995 10.23V20.37C466.995 21.03 466.825 21.64 466.485 22.2C466.165 22.74 465.725 23.18 465.165 23.52C464.625 23.84 464.015 24 463.335 24H452.895ZM452.895 21.54H463.335C463.655 21.54 463.925 21.43 464.145 21.21C464.385 20.97 464.505 20.69 464.505 20.37V10.23C464.505 9.91 464.385 9.64 464.145 9.42C463.925 9.18 463.655 9.06 463.335 9.06H452.895C452.575 9.06 452.295 9.18 452.055 9.42C451.835 9.64 451.725 9.91 451.725 10.23V20.37C451.725 20.69 451.835 20.97 452.055 21.21C452.295 21.43 452.575 21.54 452.895 21.54ZM478.356 24L468.756 6.6H471.636L479.796 21.6L487.956 6.6H490.836L481.206 24H478.356ZM496.079 24C495.419 24 494.809 23.84 494.249 23.52C493.709 23.18 493.269 22.74 492.929 22.2C492.609 21.64 492.449 21.03 492.449 20.37V10.23C492.449 9.57 492.609 8.97 492.929 8.43C493.269 7.87 493.709 7.43 494.249 7.11C494.809 6.77 495.419 6.6 496.079 6.6H506.519C507.199 6.6 507.809 6.77 508.349 7.11C508.909 7.43 509.349 7.87 509.669 8.43C510.009 8.97 510.179 9.57 510.179 10.23V16.53H494.909V20.37C494.909 20.69 495.019 20.97 495.239 21.21C495.479 21.43 495.759 21.54 496.079 21.54H510.179V24H496.079ZM494.909 14.07H507.689V10.23C507.689 9.91 507.569 9.64 507.329 9.42C507.109 9.18 506.839 9.06 506.519 9.06H496.079C495.759 9.06 495.479 9.18 495.239 9.42C495.019 9.64 494.909 9.91 494.909 10.23V14.07ZM530.064 24V4.83H520.464V2.4H542.064V4.83H532.494V24H530.064ZM544.097 24C543.437 24 542.827 23.84 542.267 23.52C541.727 23.18 541.287 22.74 540.947 22.2C540.627 21.64 540.467 21.03 540.467 20.37V10.23C540.467 9.57 540.627 8.97 540.947 8.43C541.287 7.87 541.727 7.43 542.267 7.11C542.827 6.77 543.437 6.6 544.097 6.6H554.537C555.217 6.6 555.827 6.77 556.367 7.11C556.927 7.43 557.367 7.87 557.687 8.43C558.027 8.97 558.197 9.57 558.197 10.23V20.37C558.197 21.03 558.027 21.64 557.687 22.2C557.367 22.74 556.927 23.18 556.367 23.52C555.827 23.84 555.217 24 554.537 24H544.097ZM544.097 21.54H554.537C554.857 21.54 555.127 21.43 555.347 21.21C555.587 20.97 555.707 20.69 555.707 20.37V10.23C555.707 9.91 555.587 9.64 555.347 9.42C555.127 9.18 554.857 9.06 554.537 9.06H544.097C543.777 9.06 543.497 9.18 543.257 9.42C543.037 9.64 542.927 9.91 542.927 10.23V20.37C542.927 20.69 543.037 20.97 543.257 21.21C543.497 21.43 543.777 21.54 544.097 21.54ZM569.562 24V2.4H572.892L581.862 13.08L590.832 2.4H594.162V24H591.732V5.16L581.862 16.89L571.992 5.16V24H569.562ZM600.874 24C600.214 24 599.604 23.84 599.044 23.52C598.504 23.18 598.064 22.74 597.724 22.2C597.404 21.64 597.244 21.03 597.244 20.37V10.23C597.244 9.57 597.404 8.97 597.724 8.43C598.064 7.87 598.504 7.43 599.044 7.11C599.604 6.77 600.214 6.6 600.874 6.6H611.314C611.994 6.6 612.604 6.77 613.144 7.11C613.704 7.43 614.144 7.87 614.464 8.43C614.804 8.97 614.974 9.57 614.974 10.23V16.53H599.704V20.37C599.704 20.69 599.814 20.97 600.034 21.21C600.274 21.43 600.554 21.54 600.874 21.54H614.974V24H600.874ZM599.704 14.07H612.484V10.23C612.484 9.91 612.364 9.64 612.124 9.42C611.904 9.18 611.634 9.06 611.314 9.06H600.874C600.554 9.06 600.274 9.18 600.034 9.42C599.814 9.64 599.704 9.91 599.704 10.23V14.07ZM621.206 24C620.546 24 619.936 23.84 619.376 23.52C618.836 23.18 618.396 22.74 618.056 22.2C617.736 21.64 617.576 21.03 617.576 20.37V10.23C617.576 9.57 617.736 8.97 618.056 8.43C618.396 7.87 618.836 7.43 619.376 7.11C619.936 6.77 620.546 6.6 621.206 6.6H631.646C632.326 6.6 632.936 6.77 633.476 7.11C634.036 7.43 634.476 7.87 634.796 8.43C635.136 8.97 635.306 9.57 635.306 10.23V16.53H620.036V20.37C620.036 20.69 620.146 20.97 620.366 21.21C620.606 21.43 620.886 21.54 621.206 21.54H635.306V24H621.206ZM620.036 14.07H632.816V10.23C632.816 9.91 632.696 9.64 632.456 9.42C632.236 9.18 631.966 9.06 631.646 9.06H621.206C620.886 9.06 620.606 9.18 620.366 9.42C620.146 9.64 620.036 9.91 620.036 10.23V14.07ZM642.037 24C641.357 24 640.737 23.84 640.177 23.52C639.637 23.18 639.207 22.74 638.887 22.2C638.567 21.64 638.407 21.03 638.407 20.37V0.899999H640.867V6.6H648.397V9.06H640.867V20.37C640.867 20.69 640.977 20.97 641.197 21.21C641.437 21.43 641.717 21.54 642.037 21.54H648.397V24H642.037Z" fill="#7E7D7D"/>
</svg>
