<svg width="143" height="18" viewBox="0 0 143 18" fill="none" xmlns="http://www.w3.org/2000/svg">
<path d="M15.6 18L9.725 11H12.375L18.275 17.975V18H15.6ZM0.4 18V0.024999H15.4C15.95 0.024999 16.45 0.166666 16.9 0.449999C17.3667 0.716666 17.7333 1.075 18 1.525C18.2667 1.975 18.4 2.475 18.4 3.025V8.3C18.4 8.85 18.2667 9.35 18 9.8C17.7333 10.25 17.3667 10.6167 16.9 10.9C16.45 11.1667 15.95 11.3 15.4 11.3H2.425V18H0.4ZM3.4 9.25H15.4C15.6667 9.25 15.8917 9.15833 16.075 8.975C16.275 8.79167 16.375 8.56667 16.375 8.3V3.025C16.375 2.75833 16.275 2.53333 16.075 2.35C15.8917 2.15 15.6667 2.05 15.4 2.05H3.4C3.13333 2.05 2.9 2.15 2.7 2.35C2.51667 2.53333 2.425 2.75833 2.425 3.025V8.3C2.425 8.56667 2.51667 8.79167 2.7 8.975C2.9 9.15833 3.13333 9.25 3.4 9.25ZM21.0799 18V-7.15256e-07H37.5049V2.025H23.1049V7.975H34.6799V10.025H23.1049V15.975H37.5049V18H21.0799ZM43.1705 18C42.6205 18 42.1122 17.8667 41.6455 17.6C41.1955 17.3333 40.8372 16.975 40.5705 16.525C40.3038 16.0583 40.1705 15.55 40.1705 15V3C40.1705 2.45 40.3038 1.95 40.5705 1.5C40.8372 1.03333 41.1955 0.666666 41.6455 0.399999C42.1122 0.133332 42.6205 -7.15256e-07 43.1705 -7.15256e-07H55.1705C55.7205 -7.15256e-07 56.2205 0.133332 56.6705 0.399999C57.1372 0.666666 57.5038 1.03333 57.7705 1.5C58.0372 1.95 58.1705 2.45 58.1705 3V3.725H56.1455V3C56.1455 2.73333 56.0455 2.50833 55.8455 2.325C55.6622 2.125 55.4372 2.025 55.1705 2.025H43.1705C42.9038 2.025 42.6705 2.125 42.4705 2.325C42.2872 2.50833 42.1955 2.73333 42.1955 3V15C42.1955 15.2667 42.2872 15.5 42.4705 15.7C42.6705 15.8833 42.9038 15.975 43.1705 15.975H55.1705C55.4372 15.975 55.6622 15.8833 55.8455 15.7C56.0455 15.5 56.1455 15.2667 56.1455 15V10.55H51.6955V8.5H58.1705V15C58.1705 15.55 58.0372 16.0583 57.7705 16.525C57.5038 16.975 57.1372 17.3333 56.6705 17.6C56.2205 17.8667 55.7205 18 55.1705 18H43.1705ZM61.1725 18V-7.15256e-07H63.2225V18H61.1725ZM69.1441 18C68.5941 18 68.0858 17.8667 67.6191 17.6C67.1691 17.3333 66.8108 16.975 66.5441 16.525C66.2775 16.0583 66.1441 15.55 66.1441 15V14.3H68.1691V15C68.1691 15.2667 68.2608 15.5 68.4441 15.7C68.6441 15.8833 68.8775 15.975 69.1441 15.975H81.1441C81.4108 15.975 81.6358 15.8833 81.8191 15.7C82.0191 15.5 82.1191 15.2667 82.1191 15V10.975C82.1191 10.7083 82.0191 10.4833 81.8191 10.3C81.6358 10.1167 81.4108 10.025 81.1441 10.025H69.1441C68.5941 10.025 68.0858 9.89167 67.6191 9.625C67.1691 9.34167 66.8108 8.975 66.5441 8.525C66.2775 8.075 66.1441 7.575 66.1441 7.025V3C66.1441 2.45 66.2775 1.95 66.5441 1.5C66.8108 1.03333 67.1691 0.666666 67.6191 0.399999C68.0858 0.133332 68.5941 -7.15256e-07 69.1441 -7.15256e-07H81.1441C81.6941 -7.15256e-07 82.1941 0.133332 82.6441 0.399999C83.1108 0.666666 83.4775 1.03333 83.7441 1.5C84.0108 1.95 84.1441 2.45 84.1441 3V3.7H82.1191V3C82.1191 2.73333 82.0191 2.50833 81.8191 2.325C81.6358 2.125 81.4108 2.025 81.1441 2.025H69.1441C68.8775 2.025 68.6441 2.125 68.4441 2.325C68.2608 2.50833 68.1691 2.73333 68.1691 3V7.025C68.1691 7.29167 68.2608 7.51667 68.4441 7.7C68.6441 7.88333 68.8775 7.975 69.1441 7.975H81.1441C81.6941 7.975 82.1941 8.11667 82.6441 8.4C83.1108 8.66667 83.4775 9.025 83.7441 9.475C84.0108 9.925 84.1441 10.425 84.1441 10.975V15C84.1441 15.55 84.0108 16.0583 83.7441 16.525C83.4775 16.975 83.1108 17.3333 82.6441 17.6C82.1941 17.8667 81.6941 18 81.1441 18H69.1441ZM93.9258 18V2.025H85.9258V-7.15256e-07H103.926V2.025H95.9508V18H93.9258ZM105.846 18V-7.15256e-07H122.271V2.025H107.871V7.975H119.446V10.025H107.871V15.975H122.271V18H105.846ZM140.136 18L134.261 11H136.911L142.811 17.975V18H140.136ZM124.936 18V0.024999H139.936C140.486 0.024999 140.986 0.166666 141.436 0.449999C141.903 0.716666 142.269 1.075 142.536 1.525C142.803 1.975 142.936 2.475 142.936 3.025V8.3C142.936 8.85 142.803 9.35 142.536 9.8C142.269 10.25 141.903 10.6167 141.436 10.9C140.986 11.1667 140.486 11.3 139.936 11.3H126.961V18H124.936ZM127.936 9.25H139.936C140.203 9.25 140.428 9.15833 140.611 8.975C140.811 8.79167 140.911 8.56667 140.911 8.3V3.025C140.911 2.75833 140.811 2.53333 140.611 2.35C140.428 2.15 140.203 2.05 139.936 2.05H127.936C127.669 2.05 127.436 2.15 127.236 2.35C127.053 2.53333 126.961 2.75833 126.961 3.025V8.3C126.961 8.56667 127.053 8.79167 127.236 8.975C127.436 9.15833 127.669 9.25 127.936 9.25Z" fill="white"/>
</svg>
