<svg width="85" height="19" viewBox="0 0 85 19" fill="none" xmlns="http://www.w3.org/2000/svg">
<path d="M0.425 19V0.975H2.45V16.975H18.425V19H0.425ZM22.8324 19C22.2824 19 21.7741 18.8667 21.3074 18.6C20.8574 18.3333 20.4991 17.975 20.2324 17.525C19.9658 17.0583 19.8324 16.55 19.8324 16V4C19.8324 3.45 19.9658 2.95 20.2324 2.5C20.4991 2.03333 20.8574 1.66667 21.3074 1.4C21.7741 1.13333 22.2824 0.999999 22.8324 0.999999H34.8324C35.3824 0.999999 35.8824 1.13333 36.3324 1.4C36.7991 1.66667 37.1658 2.03333 37.4324 2.5C37.6991 2.95 37.8324 3.45 37.8324 4V16C37.8324 16.55 37.6991 17.0583 37.4324 17.525C37.1658 17.975 36.7991 18.3333 36.3324 18.6C35.8824 18.8667 35.3824 19 34.8324 19H22.8324ZM22.8324 16.975H34.8324C35.0991 16.975 35.3241 16.8833 35.5074 16.7C35.7074 16.5 35.8074 16.2667 35.8074 16V4C35.8074 3.73333 35.7074 3.50833 35.5074 3.325C35.3241 3.125 35.0991 3.025 34.8324 3.025H22.8324C22.5658 3.025 22.3324 3.125 22.1324 3.325C21.9491 3.50833 21.8574 3.73333 21.8574 4V16C21.8574 16.2667 21.9491 16.5 22.1324 16.7C22.3324 16.8833 22.5658 16.975 22.8324 16.975ZM43.5855 19C43.0355 19 42.5272 18.8667 42.0605 18.6C41.6105 18.3333 41.2522 17.975 40.9855 17.525C40.7189 17.0583 40.5855 16.55 40.5855 16V4C40.5855 3.45 40.7189 2.95 40.9855 2.5C41.2522 2.03333 41.6105 1.66667 42.0605 1.4C42.5272 1.13333 43.0355 0.999999 43.5855 0.999999H55.5855C56.1355 0.999999 56.6355 1.13333 57.0855 1.4C57.5522 1.66667 57.9189 2.03333 58.1855 2.5C58.4522 2.95 58.5855 3.45 58.5855 4V4.725H56.5605V4C56.5605 3.73333 56.4605 3.50833 56.2605 3.325C56.0772 3.125 55.8522 3.025 55.5855 3.025H43.5855C43.3189 3.025 43.0855 3.125 42.8855 3.325C42.7022 3.50833 42.6105 3.73333 42.6105 4V16C42.6105 16.2667 42.7022 16.5 42.8855 16.7C43.0855 16.8833 43.3189 16.975 43.5855 16.975H55.5855C55.8522 16.975 56.0772 16.8833 56.2605 16.7C56.4605 16.5 56.5605 16.2667 56.5605 16V11.55H52.1105V9.5H58.5855V16C58.5855 16.55 58.4522 17.0583 58.1855 17.525C57.9189 17.975 57.5522 18.3333 57.0855 18.6C56.6355 18.8667 56.1355 19 55.5855 19H43.5855ZM61.5875 19V0.999999H63.6375V19H61.5875ZM66.6842 19V0.999999H69.4592L82.6592 16.7V0.999999H84.6842V19H81.9092L68.7092 3.3V19H66.6842Z" fill="white"/>
</svg>
