<svg width="487" height="69" viewBox="0 0 487 69" fill="none" xmlns="http://www.w3.org/2000/svg">
<path d="M10.2 24V4.83H0.6V2.4H22.2V4.83H12.63V24H10.2ZM24.2323 24C23.5723 24 22.9623 23.84 22.4023 23.52C21.8623 23.18 21.4223 22.74 21.0823 22.2C20.7623 21.64 20.6023 21.03 20.6023 20.37V10.23C20.6023 9.57 20.7623 8.97 21.0823 8.43C21.4223 7.87 21.8623 7.43 22.4023 7.11C22.9623 6.77 23.5723 6.6 24.2323 6.6H34.6723C35.3523 6.6 35.9623 6.77 36.5023 7.11C37.0623 7.43 37.5023 7.87 37.8223 8.43C38.1623 8.97 38.3323 9.57 38.3323 10.23V20.37C38.3323 21.03 38.1623 21.64 37.8223 22.2C37.5023 22.74 37.0623 23.18 36.5023 23.52C35.9623 23.84 35.3523 24 34.6723 24H24.2323ZM24.2323 21.54H34.6723C34.9923 21.54 35.2623 21.43 35.4823 21.21C35.7223 20.97 35.8423 20.69 35.8423 20.37V10.23C35.8423 9.91 35.7223 9.64 35.4823 9.42C35.2623 9.18 34.9923 9.06 34.6723 9.06H24.2323C23.9123 9.06 23.6323 9.18 23.3923 9.42C23.1723 9.64 23.0623 9.91 23.0623 10.23V20.37C23.0623 20.69 23.1723 20.97 23.3923 21.21C23.6323 21.43 23.9123 21.54 24.2323 21.54ZM53.1776 24C52.5176 24 51.9076 23.84 51.3476 23.52C50.8076 23.18 50.3676 22.74 50.0276 22.2C49.7076 21.64 49.5476 21.03 49.5476 20.37V10.23C49.5476 9.57 49.7076 8.97 50.0276 8.43C50.3676 7.87 50.8076 7.43 51.3476 7.11C51.9076 6.77 52.5176 6.6 53.1776 6.6H67.2176V9.06H53.1776C52.8576 9.06 52.5776 9.18 52.3376 9.42C52.1176 9.64 52.0076 9.91 52.0076 10.23V20.37C52.0076 20.69 52.1176 20.97 52.3376 21.21C52.5776 21.43 52.8576 21.54 53.1776 21.54H67.2776V24H53.1776ZM70.0575 24V0.899999H72.5175V6.6H84.1575C84.8175 6.6 85.4175 6.77 85.9575 7.11C86.5175 7.43 86.9575 7.87 87.2775 8.43C87.6175 8.97 87.7875 9.57 87.7875 10.23V24H85.3275V10.23C85.3275 9.91 85.2075 9.64 84.9675 9.42C84.7475 9.18 84.4775 9.06 84.1575 9.06H73.7175C73.3975 9.06 73.1175 9.18 72.8775 9.42C72.6375 9.64 72.5175 9.91 72.5175 10.23V24H70.0575ZM93.813 24C93.153 24 92.543 23.84 91.983 23.52C91.443 23.18 91.003 22.74 90.663 22.2C90.343 21.64 90.183 21.03 90.183 20.37V14.07H105.423V10.23C105.423 9.91 105.303 9.64 105.063 9.42C104.843 9.18 104.573 9.06 104.253 9.06H90.183V6.6H104.253C104.933 6.6 105.543 6.77 106.083 7.11C106.643 7.43 107.083 7.87 107.403 8.43C107.743 8.97 107.913 9.57 107.913 10.23V24H93.813ZM93.813 21.54H105.423V16.53H92.643V20.37C92.643 20.69 92.753 20.97 92.973 21.21C93.213 21.43 93.493 21.54 93.813 21.54ZM114.673 24C113.993 24 113.373 23.84 112.813 23.52C112.273 23.18 111.843 22.74 111.523 22.2C111.203 21.64 111.043 21.03 111.043 20.37V0.899999H113.503V6.6H121.033V9.06H113.503V20.37C113.503 20.69 113.613 20.97 113.833 21.21C114.073 21.43 114.353 21.54 114.673 21.54H121.033V24H114.673ZM135.092 24C134.432 24 133.822 23.84 133.262 23.52C132.722 23.18 132.282 22.74 131.942 22.2C131.622 21.64 131.462 21.03 131.462 20.37V10.23C131.462 9.57 131.622 8.97 131.942 8.43C132.282 7.87 132.722 7.43 133.262 7.11C133.822 6.77 134.432 6.6 135.092 6.6H145.532C146.212 6.6 146.822 6.77 147.362 7.11C147.922 7.43 148.362 7.87 148.682 8.43C149.022 8.97 149.192 9.57 149.192 10.23V20.37C149.192 21.03 149.022 21.64 148.682 22.2C148.362 22.74 147.922 23.18 147.362 23.52C146.822 23.84 146.212 24 145.532 24H135.092ZM135.092 21.54H145.532C145.852 21.54 146.122 21.43 146.342 21.21C146.582 20.97 146.702 20.69 146.702 20.37V10.23C146.702 9.91 146.582 9.64 146.342 9.42C146.122 9.18 145.852 9.06 145.532 9.06H135.092C134.772 9.06 134.492 9.18 134.252 9.42C134.032 9.64 133.922 9.91 133.922 10.23V20.37C133.922 20.69 134.032 20.97 134.252 21.21C134.492 21.43 134.772 21.54 135.092 21.54ZM151.97 24V10.23C151.97 9.57 152.13 8.97 152.45 8.43C152.79 7.87 153.23 7.43 153.77 7.11C154.33 6.77 154.94 6.6 155.6 6.6H165.38V9.06H155.6C155.28 9.06 155 9.18 154.76 9.42C154.54 9.64 154.43 9.91 154.43 10.23V24H151.97ZM175.556 24V6.6H189.656C190.316 6.6 190.916 6.77 191.456 7.11C192.016 7.43 192.456 7.87 192.776 8.43C193.116 8.97 193.286 9.57 193.286 10.23V24H190.826V10.23C190.826 9.91 190.706 9.64 190.466 9.42C190.246 9.18 189.976 9.06 189.656 9.06H179.216C178.896 9.06 178.616 9.18 178.376 9.42C178.136 9.64 178.016 9.91 178.016 10.23V24H175.556ZM199.545 24C198.885 24 198.275 23.84 197.715 23.52C197.175 23.18 196.735 22.74 196.395 22.2C196.075 21.64 195.915 21.03 195.915 20.37V10.23C195.915 9.57 196.075 8.97 196.395 8.43C196.735 7.87 197.175 7.43 197.715 7.11C198.275 6.77 198.885 6.6 199.545 6.6H209.985C210.665 6.6 211.275 6.77 211.815 7.11C212.375 7.43 212.815 7.87 213.135 8.43C213.475 8.97 213.645 9.57 213.645 10.23V20.37C213.645 21.03 213.475 21.64 213.135 22.2C212.815 22.74 212.375 23.18 211.815 23.52C211.275 23.84 210.665 24 209.985 24H199.545ZM199.545 21.54H209.985C210.305 21.54 210.575 21.43 210.795 21.21C211.035 20.97 211.155 20.69 211.155 20.37V10.23C211.155 9.91 211.035 9.64 210.795 9.42C210.575 9.18 210.305 9.06 209.985 9.06H199.545C199.225 9.06 198.945 9.18 198.705 9.42C198.485 9.64 198.375 9.91 198.375 10.23V20.37C198.375 20.69 198.485 20.97 198.705 21.21C198.945 21.43 199.225 21.54 199.545 21.54ZM219.673 24C218.993 24 218.373 23.84 217.813 23.52C217.273 23.18 216.843 22.74 216.523 22.2C216.203 21.64 216.043 21.03 216.043 20.37V0.899999H218.503V6.6H226.033V9.06H218.503V20.37C218.503 20.69 218.613 20.97 218.833 21.21C219.073 21.43 219.353 21.54 219.673 21.54H226.033V24H219.673ZM240.152 24C239.472 24 238.852 23.84 238.292 23.52C237.752 23.18 237.322 22.74 237.002 22.2C236.682 21.64 236.522 21.03 236.522 20.37V0.899999H238.982V6.6H246.512V9.06H238.982V20.37C238.982 20.69 239.092 20.97 239.312 21.21C239.552 21.43 239.832 21.54 240.152 21.54H246.512V24H240.152ZM252.396 24C251.736 24 251.126 23.84 250.566 23.52C250.026 23.18 249.586 22.74 249.246 22.2C248.926 21.64 248.766 21.03 248.766 20.37V10.23C248.766 9.57 248.926 8.97 249.246 8.43C249.586 7.87 250.026 7.43 250.566 7.11C251.126 6.77 251.736 6.6 252.396 6.6H262.836C263.516 6.6 264.126 6.77 264.666 7.11C265.226 7.43 265.666 7.87 265.986 8.43C266.326 8.97 266.496 9.57 266.496 10.23V20.37C266.496 21.03 266.326 21.64 265.986 22.2C265.666 22.74 265.226 23.18 264.666 23.52C264.126 23.84 263.516 24 262.836 24H252.396ZM252.396 21.54H262.836C263.156 21.54 263.426 21.43 263.646 21.21C263.886 20.97 264.006 20.69 264.006 20.37V10.23C264.006 9.91 263.886 9.64 263.646 9.42C263.426 9.18 263.156 9.06 262.836 9.06H252.396C252.076 9.06 251.796 9.18 251.556 9.42C251.336 9.64 251.226 9.91 251.226 10.23V20.37C251.226 20.69 251.336 20.97 251.556 21.21C251.796 21.43 252.076 21.54 252.396 21.54ZM281.342 24C280.682 24 280.072 23.84 279.512 23.52C278.972 23.18 278.532 22.74 278.192 22.2C277.872 21.64 277.712 21.03 277.712 20.37V10.23C277.712 9.57 277.872 8.97 278.192 8.43C278.532 7.87 278.972 7.43 279.512 7.11C280.072 6.77 280.682 6.6 281.342 6.6H295.382V9.06H281.342C281.022 9.06 280.742 9.18 280.502 9.42C280.282 9.64 280.172 9.91 280.172 10.23V20.37C280.172 20.69 280.282 20.97 280.502 21.21C280.742 21.43 281.022 21.54 281.342 21.54H295.442V24H281.342ZM298.222 24V0.899999H300.682V6.6H312.322C312.982 6.6 313.582 6.77 314.122 7.11C314.682 7.43 315.122 7.87 315.442 8.43C315.782 8.97 315.952 9.57 315.952 10.23V24H313.492V10.23C313.492 9.91 313.372 9.64 313.132 9.42C312.912 9.18 312.642 9.06 312.322 9.06H301.882C301.562 9.06 301.282 9.18 301.042 9.42C300.802 9.64 300.682 9.91 300.682 10.23V24H298.222ZM321.977 24C321.317 24 320.707 23.84 320.147 23.52C319.607 23.18 319.167 22.74 318.827 22.2C318.507 21.64 318.347 21.03 318.347 20.37V14.07H333.587V10.23C333.587 9.91 333.467 9.64 333.227 9.42C333.007 9.18 332.737 9.06 332.417 9.06H318.347V6.6H332.417C333.097 6.6 333.707 6.77 334.247 7.11C334.807 7.43 335.247 7.87 335.567 8.43C335.907 8.97 336.077 9.57 336.077 10.23V24H321.977ZM321.977 21.54H333.587V16.53H320.807V20.37C320.807 20.69 320.917 20.97 321.137 21.21C321.377 21.43 321.657 21.54 321.977 21.54ZM342.837 24C342.157 24 341.537 23.84 340.977 23.52C340.437 23.18 340.007 22.74 339.687 22.2C339.367 21.64 339.207 21.03 339.207 20.37V0.899999H341.667V6.6H349.197V9.06H341.667V20.37C341.667 20.69 341.777 20.97 341.997 21.21C342.237 21.43 342.517 21.54 342.837 21.54H349.197V24H342.837ZM363.316 24C362.636 24 362.016 23.84 361.456 23.52C360.916 23.18 360.486 22.74 360.166 22.2C359.846 21.64 359.686 21.03 359.686 20.37V0.899999H362.146V6.6H369.676V9.06H362.146V20.37C362.146 20.69 362.256 20.97 362.476 21.21C362.716 21.43 362.996 21.54 363.316 21.54H369.676V24H363.316ZM372.167 24V0.899999H374.627V6.6H386.267C386.927 6.6 387.527 6.77 388.067 7.11C388.627 7.43 389.067 7.87 389.387 8.43C389.727 8.97 389.897 9.57 389.897 10.23V24H387.437V10.23C387.437 9.91 387.317 9.64 387.077 9.42C386.857 9.18 386.587 9.06 386.267 9.06H375.827C375.507 9.06 375.227 9.18 374.987 9.42C374.747 9.64 374.627 9.91 374.627 10.23V24H372.167ZM395.922 24C395.262 24 394.652 23.84 394.092 23.52C393.552 23.18 393.112 22.74 392.772 22.2C392.452 21.64 392.292 21.03 392.292 20.37V14.07H407.532V10.23C407.532 9.91 407.412 9.64 407.172 9.42C406.952 9.18 406.682 9.06 406.362 9.06H392.292V6.6H406.362C407.042 6.6 407.652 6.77 408.192 7.11C408.752 7.43 409.192 7.87 409.512 8.43C409.852 8.97 410.022 9.57 410.022 10.23V24H395.922ZM395.922 21.54H407.532V16.53H394.752V20.37C394.752 20.69 394.862 20.97 395.082 21.21C395.322 21.43 395.602 21.54 395.922 21.54ZM416.783 24C416.103 24 415.483 23.84 414.923 23.52C414.383 23.18 413.953 22.74 413.633 22.2C413.313 21.64 413.153 21.03 413.153 20.37V0.899999H415.613V6.6H423.143V9.06H415.613V20.37C415.613 20.69 415.723 20.97 415.943 21.21C416.183 21.43 416.463 21.54 416.783 21.54H423.143V24H416.783ZM433.601 24V6.6H436.061V24H433.601ZM433.601 3.36V0.899999H436.061V3.36H433.601ZM443.351 24C442.691 24 442.081 23.84 441.521 23.52C440.981 23.18 440.541 22.74 440.201 22.2C439.881 21.64 439.721 21.03 439.721 20.37V20.13H442.181V20.37C442.181 20.69 442.291 20.97 442.511 21.21C442.751 21.43 443.031 21.54 443.351 21.54H453.791C454.111 21.54 454.381 21.43 454.601 21.21C454.841 20.97 454.961 20.69 454.961 20.37V17.7C454.961 17.38 454.841 17.11 454.601 16.89C454.381 16.65 454.111 16.53 453.791 16.53H443.351C442.691 16.53 442.081 16.37 441.521 16.05C440.981 15.71 440.541 15.27 440.201 14.73C439.881 14.17 439.721 13.56 439.721 12.9V10.23C439.721 9.57 439.881 8.97 440.201 8.43C440.541 7.87 440.981 7.43 441.521 7.11C442.081 6.77 442.691 6.6 443.351 6.6H453.791C454.471 6.6 455.081 6.77 455.621 7.11C456.181 7.43 456.621 7.87 456.941 8.43C457.281 8.97 457.451 9.57 457.451 10.23V10.47H454.961V10.23C454.961 9.91 454.841 9.64 454.601 9.42C454.381 9.18 454.111 9.06 453.791 9.06H443.351C443.031 9.06 442.751 9.18 442.511 9.42C442.291 9.64 442.181 9.91 442.181 10.23V12.9C442.181 13.22 442.291 13.5 442.511 13.74C442.751 13.96 443.031 14.07 443.351 14.07H453.791C454.471 14.07 455.081 14.24 455.621 14.58C456.181 14.9 456.621 15.34 456.941 15.9C457.281 16.44 457.451 17.04 457.451 17.7V20.37C457.451 21.03 457.281 21.64 456.941 22.2C456.621 22.74 456.181 23.18 455.621 23.52C455.081 23.84 454.471 24 453.791 24H443.351ZM472.211 24C471.551 24 470.941 23.84 470.381 23.52C469.841 23.18 469.401 22.74 469.061 22.2C468.741 21.64 468.581 21.03 468.581 20.37V14.07H483.821V10.23C483.821 9.91 483.701 9.64 483.461 9.42C483.241 9.18 482.971 9.06 482.651 9.06H468.581V6.6H482.651C483.331 6.6 483.941 6.77 484.481 7.11C485.041 7.43 485.481 7.87 485.801 8.43C486.141 8.97 486.311 9.57 486.311 10.23V24H472.211ZM472.211 21.54H483.821V16.53H471.041V20.37C471.041 20.69 471.151 20.97 471.371 21.21C471.611 21.43 471.891 21.54 472.211 21.54ZM15.87 68.9V62H4.26C3.58 62 2.96 61.84 2.4 61.52C1.86 61.18 1.42 60.74 1.08 60.2C0.76 59.64 0.6 59.03 0.6 58.37V48.23C0.6 47.57 0.76 46.97 1.08 46.43C1.42 45.87 1.86 45.43 2.4 45.11C2.96 44.77 3.58 44.6 4.26 44.6H18.33V68.9H15.87ZM4.26 59.54H14.7C15.02 59.54 15.29 59.43 15.51 59.21C15.75 58.97 15.87 58.69 15.87 58.37V48.23C15.87 47.91 15.75 47.64 15.51 47.42C15.29 47.18 15.02 47.06 14.7 47.06H4.26C3.94 47.06 3.66 47.18 3.42 47.42C3.2 47.64 3.09 47.91 3.09 48.23V58.37C3.09 58.69 3.2 58.97 3.42 59.21C3.66 59.43 3.94 59.54 4.26 59.54ZM24.3802 62C23.7202 62 23.1102 61.84 22.5502 61.52C22.0102 61.18 21.5702 60.74 21.2302 60.2C20.9102 59.64 20.7502 59.03 20.7502 58.37V44.6H23.2102V58.37C23.2102 58.69 23.3202 58.97 23.5402 59.21C23.7802 59.43 24.0602 59.54 24.3802 59.54H34.8202C35.1402 59.54 35.4202 59.43 35.6602 59.21C35.9002 58.97 36.0202 58.69 36.0202 58.37V44.6H38.4802V58.37C38.4802 59.03 38.3102 59.64 37.9702 60.2C37.6502 60.74 37.2102 61.18 36.6502 61.52C36.1102 61.84 35.5002 62 34.8202 62H24.3802ZM44.7401 62C44.0801 62 43.4701 61.84 42.9101 61.52C42.3701 61.18 41.9301 60.74 41.5901 60.2C41.2701 59.64 41.1101 59.03 41.1101 58.37V48.23C41.1101 47.57 41.2701 46.97 41.5901 46.43C41.9301 45.87 42.3701 45.43 42.9101 45.11C43.4701 44.77 44.0801 44.6 44.7401 44.6H55.1801C55.8601 44.6 56.4701 44.77 57.0101 45.11C57.5701 45.43 58.0101 45.87 58.3301 46.43C58.6701 46.97 58.8401 47.57 58.8401 48.23V54.53H43.5701V58.37C43.5701 58.69 43.6801 58.97 43.9001 59.21C44.1401 59.43 44.4201 59.54 44.7401 59.54H58.8401V62H44.7401ZM43.5701 52.07H56.3501V48.23C56.3501 47.91 56.2301 47.64 55.9901 47.42C55.7701 47.18 55.5001 47.06 55.1801 47.06H44.7401C44.4201 47.06 44.1401 47.18 43.9001 47.42C43.6801 47.64 43.5701 47.91 43.5701 48.23V52.07ZM65.4216 62C64.7616 62 64.1516 61.84 63.5916 61.52C63.0516 61.18 62.6116 60.74 62.2716 60.2C61.9516 59.64 61.7916 59.03 61.7916 58.37V58.13H64.2516V58.37C64.2516 58.69 64.3616 58.97 64.5816 59.21C64.8216 59.43 65.1016 59.54 65.4216 59.54H75.8616C76.1816 59.54 76.4516 59.43 76.6716 59.21C76.9116 58.97 77.0316 58.69 77.0316 58.37V55.7C77.0316 55.38 76.9116 55.11 76.6716 54.89C76.4516 54.65 76.1816 54.53 75.8616 54.53H65.4216C64.7616 54.53 64.1516 54.37 63.5916 54.05C63.0516 53.71 62.6116 53.27 62.2716 52.73C61.9516 52.17 61.7916 51.56 61.7916 50.9V48.23C61.7916 47.57 61.9516 46.97 62.2716 46.43C62.6116 45.87 63.0516 45.43 63.5916 45.11C64.1516 44.77 64.7616 44.6 65.4216 44.6H75.8616C76.5416 44.6 77.1516 44.77 77.6916 45.11C78.2516 45.43 78.6916 45.87 79.0116 46.43C79.3516 46.97 79.5216 47.57 79.5216 48.23V48.47H77.0316V48.23C77.0316 47.91 76.9116 47.64 76.6716 47.42C76.4516 47.18 76.1816 47.06 75.8616 47.06H65.4216C65.1016 47.06 64.8216 47.18 64.5816 47.42C64.3616 47.64 64.2516 47.91 64.2516 48.23V50.9C64.2516 51.22 64.3616 51.5 64.5816 51.74C64.8216 51.96 65.1016 52.07 65.4216 52.07H75.8616C76.5416 52.07 77.1516 52.24 77.6916 52.58C78.2516 52.9 78.6916 53.34 79.0116 53.9C79.3516 54.44 79.5216 55.04 79.5216 55.7V58.37C79.5216 59.03 79.3516 59.64 79.0116 60.2C78.6916 60.74 78.2516 61.18 77.6916 61.52C77.1516 61.84 76.5416 62 75.8616 62H65.4216ZM86.138 62C85.458 62 84.838 61.84 84.278 61.52C83.738 61.18 83.308 60.74 82.988 60.2C82.668 59.64 82.508 59.03 82.508 58.37V38.9H84.968V44.6H92.498V47.06H84.968V58.37C84.968 58.69 85.078 58.97 85.298 59.21C85.538 59.43 85.818 59.54 86.138 59.54H92.498V62H86.138ZM94.9291 62V44.6H97.3891V62H94.9291ZM94.9291 41.36V38.9H97.3891V41.36H94.9291ZM104.769 62C104.109 62 103.499 61.84 102.939 61.52C102.399 61.18 101.959 60.74 101.619 60.2C101.299 59.64 101.139 59.03 101.139 58.37V48.23C101.139 47.57 101.299 46.97 101.619 46.43C101.959 45.87 102.399 45.43 102.939 45.11C103.499 44.77 104.109 44.6 104.769 44.6H115.209C115.889 44.6 116.499 44.77 117.039 45.11C117.599 45.43 118.039 45.87 118.359 46.43C118.699 46.97 118.869 47.57 118.869 48.23V58.37C118.869 59.03 118.699 59.64 118.359 60.2C118.039 60.74 117.599 61.18 117.039 61.52C116.499 61.84 115.889 62 115.209 62H104.769ZM104.769 59.54H115.209C115.529 59.54 115.799 59.43 116.019 59.21C116.259 58.97 116.379 58.69 116.379 58.37V48.23C116.379 47.91 116.259 47.64 116.019 47.42C115.799 47.18 115.529 47.06 115.209 47.06H104.769C104.449 47.06 104.169 47.18 103.929 47.42C103.709 47.64 103.599 47.91 103.599 48.23V58.37C103.599 58.69 103.709 58.97 103.929 59.21C104.169 59.43 104.449 59.54 104.769 59.54ZM121.561 62V44.6H135.661C136.321 44.6 136.921 44.77 137.461 45.11C138.021 45.43 138.461 45.87 138.781 46.43C139.121 46.97 139.291 47.57 139.291 48.23V62H136.831V48.23C136.831 47.91 136.711 47.64 136.471 47.42C136.251 47.18 135.981 47.06 135.661 47.06H125.221C124.901 47.06 124.621 47.18 124.381 47.42C124.141 47.64 124.021 47.91 124.021 48.23V62H121.561ZM142.45 62V59.54H144.91V62H142.45Z" fill="#7E7D7D"/>
</svg>
